<?xml version="1.0" encoding="UTF-8"?>
<!DOCTYPE svg PUBLIC "-//W3C//DTD SVG 1.1//EN" "http://www.w3.org/Graphics/SVG/1.1/DTD/svg11.dtd">
<svg xmlns="http://www.w3.org/2000/svg" version="1.1" width="500px" height="500px" style="shape-rendering:geometricPrecision; text-rendering:geometricPrecision; image-rendering:optimizeQuality; fill-rule:evenodd; clip-rule:evenodd" xmlns:xlink="http://www.w3.org/1999/xlink">
<g><path style="opacity:0.082" fill="#599bb5" d="M 354.5,70.5 C 340.504,66.5828 326.504,66.5828 312.5,70.5C 319.358,67.2638 326.691,65.9305 334.5,66.5C 341.715,65.778 348.382,67.1114 354.5,70.5 Z"/></g>
<g><path style="opacity:1" fill="#f5f5f5" d="M 379.5,91.5 C 380.026,93.2303 381.026,94.5637 382.5,95.5C 382.975,97.7837 383.975,99.7837 385.5,101.5C 386.13,103.75 387.13,105.75 388.5,107.5C 388.993,109.806 389.326,112.139 389.5,114.5C 389.666,120.176 389.499,125.843 389,131.5C 388.79,133.058 388.29,134.391 387.5,135.5C 387.988,114.313 378.988,98.4797 360.5,88C 337.924,76.7278 316.257,78.0611 295.5,92C 275.484,111.689 274.317,132.522 292,154.5C 312.367,173.4 335.534,177.9 361.5,168C 366.595,165.394 371.262,162.228 375.5,158.5C 372.637,163.52 368.304,167.687 362.5,171C 356.499,174.388 350.166,176.888 343.5,178.5C 331.051,175.776 318.551,173.11 306,170.5C 304.699,170.639 303.866,171.305 303.5,172.5C 303.167,172.5 302.833,172.5 302.5,172.5C 297.804,169.157 293.137,165.824 288.5,162.5C 277.942,148.598 274.108,132.932 277,115.5C 282.988,92.8452 297.155,78.0119 319.5,71C 343.412,66.8011 363.412,73.6345 379.5,91.5 Z"/></g>
<g><path style="opacity:0.055" fill="#5ea7c5" d="M 354.5,70.5 C 357.241,70.7073 359.574,71.7073 361.5,73.5C 358.759,73.2927 356.426,72.2927 354.5,70.5 Z"/></g>
<g><path style="opacity:0.086" fill="#63a9c5" d="M 312.5,70.5 C 309.485,72.6744 306.151,74.3411 302.5,75.5C 305.247,72.7933 308.58,71.1266 312.5,70.5 Z"/></g>
<g><path style="opacity:0.078" fill="#5da7c5" d="M 363.5,74.5 C 365.027,74.427 366.027,75.0937 366.5,76.5C 364.973,76.573 363.973,75.9063 363.5,74.5 Z"/></g>
<g><path style="opacity:0.012" fill="#5ba5c3" d="M 366.5,76.5 C 368.027,76.427 369.027,77.0937 369.5,78.5C 367.973,78.573 366.973,77.9063 366.5,76.5 Z"/></g>
<g><path style="opacity:0.365" fill="#5896ad" d="M 299.5,77.5 C 298.738,79.2624 297.404,80.2624 295.5,80.5C 296.262,78.7376 297.596,77.7376 299.5,77.5 Z"/></g>
<g><path style="opacity:0.008" fill="#579eba" d="M 370.5,79.5 C 372.404,79.7376 373.738,80.7376 374.5,82.5C 372.596,82.2624 371.262,81.2624 370.5,79.5 Z"/></g>
<g><path style="opacity:1" fill="#161717" d="M 387.5,135.5 C 385.86,144.449 381.86,152.115 375.5,158.5C 371.262,162.228 366.595,165.394 361.5,168C 335.534,177.9 312.367,173.4 292,154.5C 274.317,132.522 275.484,111.689 295.5,92C 316.257,78.0611 337.924,76.7278 360.5,88C 378.988,98.4797 387.988,114.313 387.5,135.5 Z"/></g>
<g><path style="opacity:0.251" fill="#60a3bd" d="M 295.5,80.5 C 293.167,83.5 290.5,86.1667 287.5,88.5C 289.167,84.8333 291.833,82.1667 295.5,80.5 Z"/></g>
<g><path style="opacity:1" fill="#a2a3a3" d="M 362.5,92.5 C 345.195,83.1704 327.195,81.5037 308.5,87.5C 323.252,81.0972 338.252,80.9305 353.5,87C 356.898,88.3571 359.898,90.1904 362.5,92.5 Z"/></g>
<g><path style="opacity:1" fill="#aeaeae" d="M 308.5,87.5 C 305.76,89.5595 302.76,91.2262 299.5,92.5C 301.756,89.5947 304.756,87.928 308.5,87.5 Z"/></g>
<g><path style="opacity:1" fill="#335462" d="M 374.5,82.5 C 379.686,87.0092 383.686,92.3425 386.5,98.5C 385.571,97.0639 384.405,95.7305 383,94.5C 382.601,94.7284 382.435,95.0618 382.5,95.5C 381.026,94.5637 380.026,93.2303 379.5,91.5C 379.649,90.448 379.483,89.448 379,88.5C 376.873,86.8863 375.373,84.8863 374.5,82.5 Z"/></g>
<g><path style="opacity:0.094" fill="#5fa3bc" d="M 287.5,88.5 C 285.053,91.8854 282.72,95.3854 280.5,99C 276.748,99.2401 273.081,99.7401 269.5,100.5C 270.105,98.9743 271.271,97.9743 273,97.5C 275.064,98.5914 277.231,98.7581 279.5,98C 281.372,94.0414 284.039,90.8747 287.5,88.5 Z"/></g>
<g><path style="opacity:1" fill="#a4a4a5" d="M 362.5,92.5 C 364.027,92.427 365.027,93.0937 365.5,94.5C 363.973,94.573 362.973,93.9063 362.5,92.5 Z"/></g>
<g><path style="opacity:1" fill="#111214" d="M 386.5,98.5 C 386.737,99.791 386.404,100.791 385.5,101.5C 383.975,99.7837 382.975,97.7837 382.5,95.5C 382.435,95.0618 382.601,94.7284 383,94.5C 384.405,95.7305 385.571,97.0639 386.5,98.5 Z"/></g>
<g><path style="opacity:1" fill="#a1a2a2" d="M 365.5,94.5 C 368.427,95.7573 370.761,97.7573 372.5,100.5C 369.573,99.2427 367.239,97.2427 365.5,94.5 Z"/></g>
<g><path style="opacity:0.216" fill="#5fa1bb" d="M 269.5,100.5 C 269.747,102.858 269.081,104.858 267.5,106.5C 266.833,106.833 266.167,107.167 265.5,107.5C 266.468,104.9 267.801,102.566 269.5,100.5 Z"/></g>
<g><path style="opacity:1" fill="#314f5c" d="M 386.5,98.5 C 388.94,101.72 390.607,105.387 391.5,109.5C 390.685,108.571 389.852,107.571 389,106.5C 388.601,106.728 388.435,107.062 388.5,107.5C 387.13,105.75 386.13,103.75 385.5,101.5C 386.404,100.791 386.737,99.791 386.5,98.5 Z"/></g>
<g><path style="opacity:1" fill="#9c9d9d" d="M 372.5,100.5 C 374.587,101.585 375.92,103.251 376.5,105.5C 374.413,104.415 373.08,102.749 372.5,100.5 Z"/></g>
<g><path style="opacity:1" fill="#9a9c9c" d="M 299.5,92.5 C 296.538,95.9641 293.371,99.2975 290,102.5C 283.887,111.611 281.887,121.611 284,132.5C 285.145,135.432 285.978,138.432 286.5,141.5C 279.251,127.793 280.084,114.459 289,101.5C 292.098,97.8926 295.598,94.8926 299.5,92.5 Z"/></g>
<g><path style="opacity:0.999" fill="#191a1c" d="M 391.5,109.5 C 391.917,113.835 392.417,118.168 393,122.5C 395.381,123.435 397.881,123.768 400.5,123.5C 401.833,123.5 402.5,124.167 402.5,125.5C 402.5,127.833 402.5,130.167 402.5,132.5C 400.59,136.89 399.757,141.557 400,146.5C 400.383,145.944 400.883,145.611 401.5,145.5C 401.5,146.167 401.5,146.833 401.5,147.5C 399.436,149.492 398.103,151.825 397.5,154.5C 393.818,154.335 390.152,154.501 386.5,155C 385.418,156.33 384.751,157.83 384.5,159.5C 382.738,160.262 381.738,161.596 381.5,163.5C 381.167,164.5 380.5,165.167 379.5,165.5C 378.167,166.167 377.167,167.167 376.5,168.5C 374.637,170.705 372.303,172.039 369.5,172.5C 386.932,156.726 393.599,137.393 389.5,114.5C 389.326,112.139 388.993,109.806 388.5,107.5C 388.435,107.062 388.601,106.728 389,106.5C 389.852,107.571 390.685,108.571 391.5,109.5 Z"/></g>
<g><path style="opacity:1" fill="#a8aaa9" d="M 376.5,105.5 C 380.884,110.267 383.717,115.934 385,122.5C 386.689,131.551 385.189,139.885 380.5,147.5C 381.66,143.531 382.827,139.531 384,135.5C 384.877,124.635 382.377,114.635 376.5,105.5 Z"/></g>
<g><path style="opacity:0.011" fill="#60a4be" d="M 263.5,114.5 C 263.5,116.5 263.5,118.5 263.5,120.5C 263.167,120.5 262.833,120.5 262.5,120.5C 262.167,119.167 261.833,119.167 261.5,120.5C 257.131,120.467 252.798,120.8 248.5,121.5C 252.364,119.487 256.531,118.154 261,117.5C 261.333,117.833 261.667,118.167 262,118.5C 262.21,116.942 262.71,115.609 263.5,114.5 Z"/></g>
<g><path style="opacity:0.018" fill="#56a9c9" d="M 391.5,109.5 C 392.8,113.001 393.966,116.667 395,120.5C 397.058,121.229 398.891,122.229 400.5,123.5C 397.881,123.768 395.381,123.435 393,122.5C 392.417,118.168 391.917,113.835 391.5,109.5 Z"/></g>
<g><path style="opacity:1" fill="#e9e9e9" d="M 396.5,148.5 C 393.918,148.975 391.918,148.308 390.5,146.5C 391.505,141.157 392.505,135.824 393.5,130.5C 398.833,130.167 398.833,129.833 393.5,129.5C 393.5,128.167 393.5,126.833 393.5,125.5C 395.527,125.338 397.527,125.505 399.5,126C 399.314,133.475 398.314,140.975 396.5,148.5 Z"/></g>
<g><path style="opacity:1" fill="#adadad" d="M 389.5,114.5 C 393.599,137.393 386.932,156.726 369.5,172.5C 364.766,175.196 360.099,177.862 355.5,180.5C 351.904,181.199 348.404,182.199 345,183.5C 344.79,181.942 344.29,180.609 343.5,179.5C 343.5,179.167 343.5,178.833 343.5,178.5C 350.166,176.888 356.499,174.388 362.5,171C 368.304,167.687 372.637,163.52 375.5,158.5C 381.86,152.115 385.86,144.449 387.5,135.5C 388.29,134.391 388.79,133.058 389,131.5C 389.499,125.843 389.666,120.176 389.5,114.5 Z"/></g>
<g><path style="opacity:0.153" fill="#5b9ab2" d="M 245.5,123.5 C 243.471,125.858 241.471,128.192 239.5,130.5C 240.092,126.911 242.092,124.578 245.5,123.5 Z"/></g>
<g><path style="opacity:0.6" fill="#427b93" d="M 402.5,125.5 C 403.267,129.274 404.267,133.107 405.5,137C 405.198,139.4 404.532,141.566 403.5,143.5C 403.806,140.615 403.473,137.948 402.5,135.5C 402.5,134.5 402.5,133.5 402.5,132.5C 402.5,130.167 402.5,127.833 402.5,125.5 Z"/></g>
<g><path style="opacity:1" fill="#db2433" d="M 402.5,132.5 C 402.5,133.5 402.5,134.5 402.5,135.5C 402.54,138.881 402.207,142.214 401.5,145.5C 400.883,145.611 400.383,145.944 400,146.5C 399.757,141.557 400.59,136.89 402.5,132.5 Z"/></g>
<g><path style="opacity:0.965" fill="#2a1516" d="M 402.5,135.5 C 403.473,137.948 403.806,140.615 403.5,143.5C 402.833,144.167 402.167,144.833 401.5,145.5C 402.207,142.214 402.54,138.881 402.5,135.5 Z"/></g>
<g><path style="opacity:0.022" fill="#6bb7d5" d="M 239.5,131.5 C 237.394,138.461 238.561,144.795 243,150.5C 243.765,152.066 243.598,153.399 242.5,154.5C 241.309,151.111 239.809,147.778 238,144.5C 237.333,140.5 237.333,136.5 238,132.5C 238.383,131.944 238.883,131.611 239.5,131.5 Z"/></g>
<g><path style="opacity:1" fill="#a3a4a3" d="M 286.5,141.5 C 288.745,144.32 290.745,147.32 292.5,150.5C 289.263,148.37 287.263,145.37 286.5,141.5 Z"/></g>
<g><path style="opacity:0.059" fill="#50a4c5" d="M 403.5,143.5 C 403.771,145.38 403.104,146.713 401.5,147.5C 401.5,146.833 401.5,146.167 401.5,145.5C 402.167,144.833 402.833,144.167 403.5,143.5 Z"/></g>
<g><path style="opacity:1" fill="#a8a8a8" d="M 390.5,146.5 C 391.918,148.308 393.918,148.975 396.5,148.5C 395.766,149.708 395.433,151.041 395.5,152.5C 393.167,152.5 390.833,152.5 388.5,152.5C 388.259,150.102 388.926,148.102 390.5,146.5 Z"/></g>
<g><path style="opacity:1" fill="#a2a2a3" d="M 292.5,150.5 C 294.833,152.167 296.833,154.167 298.5,156.5C 295.5,155.5 293.5,153.5 292.5,150.5 Z"/></g>
<g><path style="opacity:0.008" fill="#4f9fbf" d="M 397.5,154.5 C 396.626,155.525 395.459,156.192 394,156.5C 391.88,155.541 389.713,155.374 387.5,156C 386.837,157.518 385.837,158.685 384.5,159.5C 384.751,157.83 385.418,156.33 386.5,155C 390.152,154.501 393.818,154.335 397.5,154.5 Z"/></g>
<g><path style="opacity:1" fill="#a9abaa" d="M 298.5,156.5 C 300.749,157.08 302.415,158.413 303.5,160.5C 301.251,159.92 299.585,158.587 298.5,156.5 Z"/></g>
<g><path style="opacity:0.008" fill="#57b0d4" d="M 384.5,159.5 C 384.262,161.404 383.262,162.738 381.5,163.5C 381.738,161.596 382.738,160.262 384.5,159.5 Z"/></g>
<g><path style="opacity:1" fill="#0b0c0e" d="M 362.5,92.5 C 362.973,93.9063 363.973,94.573 365.5,94.5C 367.239,97.2427 369.573,99.2427 372.5,100.5C 373.08,102.749 374.413,104.415 376.5,105.5C 382.377,114.635 384.877,124.635 384,135.5C 382.827,139.531 381.66,143.531 380.5,147.5C 377.399,150.835 374.399,154.335 371.5,158C 368.433,160.188 365.433,162.355 362.5,164.5C 360.847,164.66 359.514,165.326 358.5,166.5C 343.055,170.761 327.722,170.427 312.5,165.5C 309.992,163.076 306.992,161.41 303.5,160.5C 302.415,158.413 300.749,157.08 298.5,156.5C 296.833,154.167 294.833,152.167 292.5,150.5C 290.745,147.32 288.745,144.32 286.5,141.5C 285.978,138.432 285.145,135.432 284,132.5C 281.887,121.611 283.887,111.611 290,102.5C 293.371,99.2975 296.538,95.9641 299.5,92.5C 302.76,91.2262 305.76,89.5595 308.5,87.5C 327.195,81.5037 345.195,83.1704 362.5,92.5 Z"/></g>
<g><path style="opacity:1" fill="#131a26" d="M 369.5,102.5 C 385.272,118.381 386.439,135.381 373,153.5C 355.216,168.528 335.383,171.695 313.5,163C 307.733,160.462 302.733,156.962 298.5,152.5C 319.593,164.619 340.593,164.453 361.5,152C 377.107,137.613 379.773,121.113 369.5,102.5 Z"/></g>
<g><path style="opacity:1" fill="#093957" d="M 369.5,102.5 C 379.773,121.113 377.107,137.613 361.5,152C 340.593,164.453 319.593,164.619 298.5,152.5C 284.922,139.88 281.756,124.88 289,107.5C 302.23,89.3029 320.063,82.4696 342.5,87C 353.13,89.4923 362.13,94.6589 369.5,102.5 Z"/></g>
<g><path style="opacity:1" fill="#3a72a2" d="M 298.5,103.5 C 306.322,103.166 309.156,106.833 307,114.5C 304.734,121.049 300.234,123.549 293.5,122C 289.677,117.705 289.511,113.205 293,108.5C 294.812,106.7 296.645,105.033 298.5,103.5 Z"/></g>
<g><path style="opacity:1" fill="#3970a0" d="M 307.5,94.5 C 312.262,95.0925 313.596,97.5925 311.5,102C 305.202,102.495 303.868,99.9954 307.5,94.5 Z"/></g>
<g><path style="opacity:1" fill="#a6a7a7" d="M 303.5,160.5 C 306.992,161.41 309.992,163.076 312.5,165.5C 309.008,164.59 306.008,162.924 303.5,160.5 Z"/></g>
<g><path style="opacity:1" fill="#999b9a" d="M 380.5,147.5 C 377.102,155.898 371.102,161.564 362.5,164.5C 365.433,162.355 368.433,160.188 371.5,158C 374.399,154.335 377.399,150.835 380.5,147.5 Z"/></g>
<g><path style="opacity:1" fill="#bdbfbf" d="M 362.5,164.5 C 361.713,166.104 360.38,166.771 358.5,166.5C 359.514,165.326 360.847,164.66 362.5,164.5 Z"/></g>
<g><path style="opacity:0.004" fill="#4e9dbc" d="M 379.5,165.5 C 379.5,167.5 378.5,168.5 376.5,168.5C 377.167,167.167 378.167,166.167 379.5,165.5 Z"/></g>
<g><path style="opacity:1" fill="#a7a7a7" d="M 288.5,162.5 C 293.137,165.824 297.804,169.157 302.5,172.5C 302.631,173.376 302.298,174.043 301.5,174.5C 296.52,171.186 292.186,167.186 288.5,162.5 Z"/></g>
<g><path style="opacity:1" fill="#979999" d="M 312.5,165.5 C 327.722,170.427 343.055,170.761 358.5,166.5C 355.865,168.328 352.865,169.495 349.5,170C 336.537,172.646 324.203,171.146 312.5,165.5 Z"/></g>
<g><path style="opacity:1" fill="#ababab" d="M 275.5,178.5 C 272.454,183.824 273.454,188.657 278.5,193C 279.793,193.49 281.127,193.657 282.5,193.5C 282.33,194.822 282.663,195.989 283.5,197C 285.94,198.303 288.44,199.47 291,200.5C 291.765,200.43 292.265,200.097 292.5,199.5C 292.805,201.919 292.805,204.586 292.5,207.5C 288.714,206.107 285.048,204.441 281.5,202.5C 281.664,199.813 281.497,197.146 281,194.5C 272.317,196.118 264.151,194.785 256.5,190.5C 261.397,192.047 266.397,192.88 271.5,193C 268.494,187.596 267.827,181.929 269.5,176C 268.552,175.517 267.552,175.351 266.5,175.5C 266.263,174.209 266.596,173.209 267.5,172.5C 268.15,172.804 268.817,173.137 269.5,173.5C 270.524,172.147 271.857,171.48 273.5,171.5C 273.767,173.965 274.434,176.299 275.5,178.5 Z"/></g>
<g><path style="opacity:1" fill="#f7f8f8" d="M 306.5,172.5 C 317.136,174.627 327.803,176.627 338.5,178.5C 327.933,180.559 317.599,179.393 307.5,175C 306.748,174.329 306.414,173.496 306.5,172.5 Z"/></g>
<g><path style="opacity:1" fill="#acacac" d="M 306.5,172.5 C 306.414,173.496 306.748,174.329 307.5,175C 317.599,179.393 327.933,180.559 338.5,178.5C 340.113,178.944 341.28,179.944 342,181.5C 342.383,180.944 342.883,180.611 343.5,180.5C 343.64,182.124 342.973,183.29 341.5,184C 328.325,185.582 315.991,183.082 304.5,176.5C 303.614,175.675 303.281,174.675 303.5,173.5C 304.391,172.89 305.391,172.557 306.5,172.5 Z"/></g>
<g><path style="opacity:1" fill="#4a4d4f" d="M 343.5,178.5 C 343.5,178.833 343.5,179.167 343.5,179.5C 343.5,179.833 343.5,180.167 343.5,180.5C 342.883,180.611 342.383,180.944 342,181.5C 341.28,179.944 340.113,178.944 338.5,178.5C 327.803,176.627 317.136,174.627 306.5,172.5C 305.391,172.557 304.391,172.89 303.5,173.5C 303.5,173.167 303.5,172.833 303.5,172.5C 303.866,171.305 304.699,170.639 306,170.5C 318.551,173.11 331.051,175.776 343.5,178.5 Z"/></g>
<g><path style="opacity:1" fill="#f2f2f2" d="M 266.5,175.5 C 267.552,175.351 268.552,175.517 269.5,176C 267.827,181.929 268.494,187.596 271.5,193C 266.397,192.88 261.397,192.047 256.5,190.5C 254.833,189.833 253.167,189.167 251.5,188.5C 252.833,187.833 254.167,187.167 255.5,186.5C 256.492,186.672 257.158,186.338 257.5,185.5C 259.632,185.446 260.965,184.446 261.5,182.5C 263.822,181.198 265.155,179.198 265.5,176.5C 266.167,176.5 266.5,176.167 266.5,175.5 Z"/></g>
<g><path style="opacity:1" fill="#f3f3f3" d="M 275.5,178.5 C 279.044,187.276 284.711,194.276 292.5,199.5C 292.265,200.097 291.765,200.43 291,200.5C 288.44,199.47 285.94,198.303 283.5,197C 282.663,195.989 282.33,194.822 282.5,193.5C 281.127,193.657 279.793,193.49 278.5,193C 273.454,188.657 272.454,183.824 275.5,178.5 Z"/></g>
<g><path style="opacity:0.098" fill="#5ea7c3" d="M 242.5,154.5 C 241.528,165.525 242.861,176.191 246.5,186.5C 244.163,184.035 242.663,181.035 242,177.5C 240.259,169.385 240.425,161.718 242.5,154.5 Z"/></g>
<g><path style="opacity:1" fill="#a8a8a8" d="M 359.5,183.5 C 362.442,184.304 365.109,185.638 367.5,187.5C 355.07,193.988 341.903,195.988 328,193.5C 326.624,193.684 325.791,194.351 325.5,195.5C 324.833,195.167 324.167,194.833 323.5,194.5C 323.5,191.5 323.5,188.5 323.5,185.5C 324.451,186.919 324.784,188.585 324.5,190.5C 332.88,190.738 341.213,190.238 349.5,189C 353.346,187.914 356.68,186.081 359.5,183.5 Z"/></g>
<g><path style="opacity:1" fill="#bebebe" d="M 323.5,185.5 C 323.5,188.5 323.5,191.5 323.5,194.5C 322.5,194.5 321.5,194.5 320.5,194.5C 320.557,190.971 321.557,187.971 323.5,185.5 Z"/></g>
<g><path style="opacity:1" fill="#a3a3a3" d="M 357.5,181.5 C 358.167,181.5 358.5,181.833 358.5,182.5C 350.88,187.006 342.547,189.006 333.5,188.5C 330.833,188.167 328.167,187.833 325.5,187.5C 336.535,187.217 347.202,185.217 357.5,181.5 Z"/></g>
<g><path style="opacity:1" fill="#f7f7f7" d="M 367.5,187.5 C 368.376,187.369 369.043,187.702 369.5,188.5C 368.833,189.5 368.167,190.5 367.5,191.5C 367.624,192.107 367.957,192.44 368.5,192.5C 371.231,196.234 374.564,199.234 378.5,201.5C 378.783,202.289 379.283,202.956 380,203.5C 381.333,202.167 382.667,200.833 384,199.5C 384.708,200.381 385.542,201.047 386.5,201.5C 388.474,204.482 390.474,207.482 392.5,210.5C 392.043,211.298 391.376,211.631 390.5,211.5C 389.036,210.84 387.369,210.507 385.5,210.5C 382.514,210.382 379.848,211.048 377.5,212.5C 375.847,212.66 374.514,213.326 373.5,214.5C 372.167,214.5 370.833,214.5 369.5,214.5C 367.547,210.88 364.881,207.88 361.5,205.5C 360.624,205.369 359.957,205.702 359.5,206.5C 358.339,208.885 357.339,211.219 356.5,213.5C 351.979,220.405 349.645,228.071 349.5,236.5C 345.246,234.028 344.746,231.028 348,227.5C 348.609,219.486 348.942,211.486 349,203.5C 344.934,202.419 340.767,201.752 336.5,201.5C 336.822,199.278 336.155,197.444 334.5,196C 331.518,195.502 328.518,195.335 325.5,195.5C 325.791,194.351 326.624,193.684 328,193.5C 341.903,195.988 355.07,193.988 367.5,187.5 Z"/></g>
<g><path style="opacity:1" fill="#268ece" d="M 378.5,201.5 C 375.769,197.766 372.436,194.766 368.5,192.5C 369.145,191.188 370.145,190.188 371.5,189.5C 375.975,192.149 379.475,195.482 382,199.5C 381.184,200.823 380.017,201.489 378.5,201.5 Z"/></g>
<g><path style="opacity:0.11" fill="#589fbb" d="M 252.5,191.5 C 254.819,191.992 256.819,192.992 258.5,194.5C 255.911,194.539 253.911,193.539 252.5,191.5 Z"/></g>
<g><path style="opacity:1" fill="#20313a" d="M 376.5,168.5 C 376.141,170.371 375.141,171.871 373.5,173C 369.949,175.268 366.616,177.768 363.5,180.5C 369.339,184.829 375.339,188.996 381.5,193C 384.039,195.37 386.372,197.87 388.5,200.5C 387.508,200.328 386.842,200.662 386.5,201.5C 385.542,201.047 384.708,200.381 384,199.5C 382.667,200.833 381.333,202.167 380,203.5C 379.283,202.956 378.783,202.289 378.5,201.5C 380.017,201.489 381.184,200.823 382,199.5C 379.475,195.482 375.975,192.149 371.5,189.5C 370.145,190.188 369.145,191.188 368.5,192.5C 367.957,192.44 367.624,192.107 367.5,191.5C 368.167,190.5 368.833,189.5 369.5,188.5C 369.043,187.702 368.376,187.369 367.5,187.5C 365.109,185.638 362.442,184.304 359.5,183.5C 359.5,182.833 359.167,182.5 358.5,182.5C 358.5,181.833 358.167,181.5 357.5,181.5C 357.158,180.662 356.492,180.328 355.5,180.5C 360.099,177.862 364.766,175.196 369.5,172.5C 372.303,172.039 374.637,170.705 376.5,168.5 Z"/></g>
<g><path style="opacity:0.847" fill="#40768b" d="M 258.5,194.5 C 262.8,194.719 266.8,195.719 270.5,197.5C 270.167,197.5 269.833,197.5 269.5,197.5C 265.521,197.258 261.854,196.258 258.5,194.5 Z"/></g>
<g><path style="opacity:1" fill="#28333d" d="M 368.5,192.5 C 372.436,194.766 375.769,197.766 378.5,201.5C 374.564,199.234 371.231,196.234 368.5,192.5 Z"/></g>
<g><path style="opacity:0.022" fill="#55a1be" d="M 269.5,197.5 C 269.833,197.5 270.167,197.5 270.5,197.5C 273.5,197.5 276.5,197.5 279.5,197.5C 279.056,203.832 278.556,210.165 278,216.5C 276.67,217.582 275.17,218.249 273.5,218.5C 276.535,213.306 278.202,207.639 278.5,201.5C 278.023,200.522 277.357,199.689 276.5,199C 273.964,198.814 271.631,198.314 269.5,197.5 Z"/></g>
<g><path style="opacity:0.208" fill="#408aa7" d="M 388.5,200.5 C 390.587,201.585 391.92,203.251 392.5,205.5C 390.413,204.415 389.08,202.749 388.5,200.5 Z"/></g>
<g><path style="opacity:0.161" fill="#4697b8" d="M 392.5,205.5 C 393.906,205.973 394.573,206.973 394.5,208.5C 393.094,208.027 392.427,207.027 392.5,205.5 Z"/></g>
<g><path style="opacity:0.314" fill="#469bbc" d="M 394.5,208.5 C 398.119,212.915 398.786,217.581 396.5,222.5C 396.778,217.661 396.112,212.994 394.5,208.5 Z"/></g>
<g><path style="opacity:0.999" fill="#21292e" d="M 223.5,224.5 C 221.585,224.216 219.919,224.549 218.5,225.5C 195.648,219.729 172.981,220.396 150.5,227.5C 150.47,226.503 150.97,225.836 152,225.5C 154.72,224.767 157.22,223.767 159.5,222.5C 164.12,222.26 168.453,221.26 172.5,219.5C 183.09,218.358 193.757,218.192 204.5,219C 211.147,220.165 217.481,221.998 223.5,224.5 Z"/></g>
<g><path style="opacity:0.62" fill="#4d859a" d="M 172.5,219.5 C 168.453,221.26 164.12,222.26 159.5,222.5C 163.547,220.74 167.88,219.74 172.5,219.5 Z"/></g>
<g><path style="opacity:1" fill="#191a1b" d="M 354.5,70.5 C 356.426,72.2927 358.759,73.2927 361.5,73.5C 362.492,73.3284 363.158,73.6618 363.5,74.5C 363.973,75.9063 364.973,76.573 366.5,76.5C 366.973,77.9063 367.973,78.573 369.5,78.5C 370.167,78.5 370.5,78.8333 370.5,79.5C 371.262,81.2624 372.596,82.2624 374.5,82.5C 375.373,84.8863 376.873,86.8863 379,88.5C 379.483,89.448 379.649,90.448 379.5,91.5C 363.412,73.6345 343.412,66.8011 319.5,71C 297.155,78.0119 282.988,92.8452 277,115.5C 274.108,132.932 277.942,148.598 288.5,162.5C 292.186,167.186 296.52,171.186 301.5,174.5C 302.298,174.043 302.631,173.376 302.5,172.5C 302.833,172.5 303.167,172.5 303.5,172.5C 303.5,172.833 303.5,173.167 303.5,173.5C 303.281,174.675 303.614,175.675 304.5,176.5C 315.991,183.082 328.325,185.582 341.5,184C 342.973,183.29 343.64,182.124 343.5,180.5C 343.5,180.167 343.5,179.833 343.5,179.5C 344.29,180.609 344.79,181.942 345,183.5C 348.404,182.199 351.904,181.199 355.5,180.5C 356.492,180.328 357.158,180.662 357.5,181.5C 347.202,185.217 336.535,187.217 325.5,187.5C 328.167,187.833 330.833,188.167 333.5,188.5C 342.547,189.006 350.88,187.006 358.5,182.5C 359.167,182.5 359.5,182.833 359.5,183.5C 356.68,186.081 353.346,187.914 349.5,189C 341.213,190.238 332.88,190.738 324.5,190.5C 324.784,188.585 324.451,186.919 323.5,185.5C 321.557,187.971 320.557,190.971 320.5,194.5C 321.5,194.5 322.5,194.5 323.5,194.5C 324.167,194.833 324.833,195.167 325.5,195.5C 328.518,195.335 331.518,195.502 334.5,196C 336.155,197.444 336.822,199.278 336.5,201.5C 340.767,201.752 344.934,202.419 349,203.5C 348.942,211.486 348.609,219.486 348,227.5C 344.746,231.028 345.246,234.028 349.5,236.5C 350.653,238.93 351.653,238.93 352.5,236.5C 354.08,228.856 355.413,221.189 356.5,213.5C 357.339,211.219 358.339,208.885 359.5,206.5C 359.957,205.702 360.624,205.369 361.5,205.5C 360.782,207.137 360.616,208.803 361,210.5C 363.869,212.504 366.369,214.837 368.5,217.5C 369.386,216.675 369.719,215.675 369.5,214.5C 370.833,214.5 372.167,214.5 373.5,214.5C 372.859,215.482 372.193,216.482 371.5,217.5C 371.624,218.107 371.957,218.44 372.5,218.5C 369.406,224.234 366.572,230.234 364,236.5C 362.039,239.463 359.706,242.129 357,244.5C 352.474,252.007 354.307,254.84 362.5,253C 364.747,254.995 365.747,257.495 365.5,260.5C 365.5,261.167 365.167,261.5 364.5,261.5C 362.991,260.141 362.324,260.641 362.5,263C 363.42,268.634 366.753,271.134 372.5,270.5C 372.737,271.791 372.404,272.791 371.5,273.5C 367.98,271.574 364.313,269.908 360.5,268.5C 363.258,267.033 362.925,266.367 359.5,266.5C 361.148,264.544 361.815,262.211 361.5,259.5C 362.801,258.116 362.801,256.616 361.5,255C 358.833,255 356.167,255 353.5,255C 352.736,252.931 352.236,250.764 352,248.5C 348.701,246.677 345.201,245.344 341.5,244.5C 342.025,243.808 342.692,243.308 343.5,243C 343.272,242.601 342.938,242.435 342.5,242.5C 339.74,239.192 337.74,235.526 336.5,231.5C 331.944,229.558 326.944,228.892 321.5,229.5C 321.5,232.833 321.5,236.167 321.5,239.5C 321.5,239.833 321.5,240.167 321.5,240.5C 320.686,242.631 320.186,244.964 320,247.5C 319.51,246.207 319.343,244.873 319.5,243.5C 319.613,238.482 319.947,233.482 320.5,228.5C 319.5,228.5 318.5,228.5 317.5,228.5C 316.89,234.815 316.557,241.149 316.5,247.5C 315.539,249.265 315.205,251.265 315.5,253.5C 317.124,253.64 318.29,252.973 319,251.5C 319.5,252.667 320.333,253.5 321.5,254C 331.416,255.109 338.082,260.276 341.5,269.5C 341.389,270.117 341.056,270.617 340.5,271C 342.134,271.494 343.801,271.66 345.5,271.5C 345.5,272.167 345.167,272.5 344.5,272.5C 343.167,272.5 341.833,272.5 340.5,272.5C 339.91,276.603 338.91,280.603 337.5,284.5C 336.833,284.5 336.167,284.5 335.5,284.5C 336.371,281.888 337.037,279.221 337.5,276.5C 339.314,266.656 335.314,260.156 325.5,257C 316.842,254.443 308.509,255.11 300.5,259C 295.123,262.815 293.123,267.982 294.5,274.5C 295.424,279.737 296.091,284.737 296.5,289.5C 295.998,291.085 294.998,291.585 293.5,291C 294.517,289.951 294.684,288.784 294,287.5C 292.066,291.759 289.732,295.759 287,299.5C 286.184,300.823 285.017,301.489 283.5,301.5C 286.839,295.978 290.006,290.311 293,284.5C 292.677,279.52 292.177,274.52 291.5,269.5C 289.5,269.5 287.5,269.5 285.5,269.5C 285.5,269.167 285.5,268.833 285.5,268.5C 287.527,268.662 289.527,268.495 291.5,268C 289.942,267.79 288.609,267.29 287.5,266.5C 289.288,266.785 290.955,266.452 292.5,265.5C 297.229,256.801 304.563,252.801 314.5,253.5C 314.891,245.139 315.558,236.805 316.5,228.5C 311.812,227.532 307.145,227.532 302.5,228.5C 301.321,232.991 298.987,236.657 295.5,239.5C 295.5,238.833 295.167,238.5 294.5,238.5C 298.161,234.175 300.495,229.175 301.5,223.5C 301.253,220.221 299.753,219.221 297,220.5C 296.645,233.709 290.145,239.376 277.5,237.5C 278.791,237.737 279.791,237.404 280.5,236.5C 287.233,236.775 291.899,233.775 294.5,227.5C 293.855,226.354 293.022,225.354 292,224.5C 291.446,218.812 291.613,213.145 292.5,207.5C 292.805,204.586 292.805,201.919 292.5,199.5C 284.711,194.276 279.044,187.276 275.5,178.5C 274.434,176.299 273.767,173.965 273.5,171.5C 271.857,171.48 270.524,172.147 269.5,173.5C 268.817,173.137 268.15,172.804 267.5,172.5C 267.291,171.078 266.791,169.745 266,168.5C 265.392,170.066 264.558,171.4 263.5,172.5C 263.827,170.512 264.16,168.512 264.5,166.5C 262.863,160.93 261.863,155.263 261.5,149.5C 264.24,145.416 266.574,141.082 268.5,136.5C 266.716,135.394 264.882,135.394 263,136.5C 261.739,136.241 260.739,135.574 260,134.5C 259.74,131.423 260.24,128.423 261.5,125.5C 261.392,124.558 261.059,123.725 260.5,123C 246.824,121.677 240.324,127.844 241,141.5C 242.387,145.101 243.887,148.601 245.5,152C 243.693,162.364 244.359,172.531 247.5,182.5C 250.126,183.449 252.792,183.449 255.5,182.5C 253.524,184.011 251.191,184.844 248.5,185C 250.594,186.352 252.927,186.852 255.5,186.5C 254.167,187.167 252.833,187.833 251.5,188.5C 251.062,188.435 250.728,188.601 250.5,189C 251.381,189.708 252.047,190.542 252.5,191.5C 249.911,190.581 247.911,188.914 246.5,186.5C 242.861,176.191 241.528,165.525 242.5,154.5C 243.598,153.399 243.765,152.066 243,150.5C 238.561,144.795 237.394,138.461 239.5,131.5C 239.5,131.167 239.5,130.833 239.5,130.5C 241.471,128.192 243.471,125.858 245.5,123.5C 245.973,122.094 246.973,121.427 248.5,121.5C 252.798,120.8 257.131,120.467 261.5,120.5C 261.833,120.5 262.167,120.5 262.5,120.5C 262.5,120.833 262.5,121.167 262.5,121.5C 263.341,123.379 263.675,125.379 263.5,127.5C 263.5,127.833 263.5,128.167 263.5,128.5C 262.069,129.78 261.402,131.447 261.5,133.5C 264.609,133.264 267.609,133.597 270.5,134.5C 270.5,135.5 270.5,136.5 270.5,137.5C 270.598,139.553 269.931,141.22 268.5,142.5C 267.326,143.514 266.66,144.847 266.5,146.5C 266.068,147.71 265.401,148.71 264.5,149.5C 263.135,152.959 263.469,156.292 265.5,159.5C 266.404,160.209 266.737,161.209 266.5,162.5C 266.402,164.553 267.069,166.22 268.5,167.5C 268.5,167.833 268.5,168.167 268.5,168.5C 269.919,169.451 271.585,169.784 273.5,169.5C 273.689,165.122 275.022,161.122 277.5,157.5C 279.132,157.175 280.132,156.175 280.5,154.5C 279.003,150.838 277.503,147.172 276,143.5C 275.519,139.469 274.853,135.469 274,131.5C 272.301,130.594 270.467,130.261 268.5,130.5C 267.391,130.443 266.391,130.11 265.5,129.5C 265.672,128.508 265.338,127.842 264.5,127.5C 266.076,124.785 265.742,122.452 263.5,120.5C 263.5,118.5 263.5,116.5 263.5,114.5C 263.41,111.848 264.076,109.515 265.5,107.5C 266.167,107.167 266.833,106.833 267.5,106.5C 269.081,104.858 269.747,102.858 269.5,100.5C 273.081,99.7401 276.748,99.2401 280.5,99C 282.72,95.3854 285.053,91.8854 287.5,88.5C 290.5,86.1667 293.167,83.5 295.5,80.5C 297.404,80.2624 298.738,79.2624 299.5,77.5C 299.973,76.0937 300.973,75.427 302.5,75.5C 306.151,74.3411 309.485,72.6744 312.5,70.5C 326.504,66.5828 340.504,66.5828 354.5,70.5 Z M 270.5,137.5 C 273.905,142.651 276.572,148.318 278.5,154.5C 277.873,155.417 277.539,156.417 277.5,157.5C 274.745,161.33 271.745,164.997 268.5,168.5C 268.5,168.167 268.5,167.833 268.5,167.5C 268.598,165.447 267.931,163.78 266.5,162.5C 266.737,161.209 266.404,160.209 265.5,159.5C 264.949,156.193 264.616,152.86 264.5,149.5C 265.401,148.71 266.068,147.71 266.5,146.5C 268.104,145.713 268.771,144.38 268.5,142.5C 269.931,141.22 270.598,139.553 270.5,137.5 Z M 265.5,129.5 C 266.391,130.11 267.391,130.443 268.5,130.5C 270.158,131.181 271.825,132.015 273.5,133C 272.95,135.158 271.95,135.658 270.5,134.5C 269.448,132.744 267.781,132.077 265.5,132.5C 265.5,131.5 265.5,130.5 265.5,129.5 Z M 361.5,214.5 C 363.215,216.882 365.215,218.882 367.5,220.5C 367.5,220.833 367.5,221.167 367.5,221.5C 365.926,223.102 365.259,225.102 365.5,227.5C 363.896,228.287 363.229,229.62 363.5,231.5C 361.412,233.336 360.079,235.669 359.5,238.5C 358.127,238.657 356.793,238.49 355.5,238C 356.444,235.281 356.777,232.448 356.5,229.5C 357.64,224.326 359.307,219.326 361.5,214.5 Z"/></g>
<g><path style="opacity:1" fill="#f1f1f1" d="M 326.5,198.5 C 328.948,197.527 331.615,197.194 334.5,197.5C 334.838,200.325 333.838,202.492 331.5,204C 336.759,203.622 342.092,203.789 347.5,204.5C 347.02,209.822 346.687,215.155 346.5,220.5C 344.516,219.844 342.516,219.178 340.5,218.5C 339.584,218.543 338.917,218.876 338.5,219.5C 336.018,221.503 335.018,224.169 335.5,227.5C 328.987,227.765 322.821,226.765 317,224.5C 316.667,224.833 316.333,225.167 316,225.5C 315.505,223.527 315.338,221.527 315.5,219.5C 316.113,216.991 316.78,214.491 317.5,212C 313.168,211.417 308.835,210.917 304.5,210.5C 302.5,210.5 300.5,210.5 298.5,210.5C 297.15,209.35 297.316,208.683 299,208.5C 302.815,209.696 306.648,209.696 310.5,208.5C 311.994,208.709 313.161,209.376 314,210.5C 315.401,208.808 317.234,208.141 319.5,208.5C 320.738,208.81 320.738,209.31 319.5,210C 322.917,209.306 326.251,207.973 329.5,206C 328.584,205.722 327.918,205.222 327.5,204.5C 328.794,202.32 328.461,200.32 326.5,198.5 Z"/></g>
<g><path style="opacity:1" fill="#79797a" d="M 326.5,198.5 C 328.461,200.32 328.794,202.32 327.5,204.5C 326.788,205.739 325.788,206.239 324.5,206C 326.013,203.084 325.68,200.418 323.5,198C 324.577,197.53 325.577,197.697 326.5,198.5 Z"/></g>
<g><path style="opacity:1" fill="#a6a6a6" d="M 279.5,181.5 C 290.293,196.563 304.96,203.563 323.5,202.5C 323.586,203.496 323.252,204.329 322.5,205C 306.731,205.743 293.565,200.243 283,188.5C 281.295,186.423 280.128,184.09 279.5,181.5 Z"/></g>
<g><path style="opacity:1" fill="#402b2b" d="M 261.5,182.5 C 260.965,184.446 259.632,185.446 257.5,185.5C 258.436,184.026 259.77,183.026 261.5,182.5 Z"/></g>
<g><path style="opacity:1" fill="#3d2727" d="M 265.5,176.5 C 265.155,179.198 263.822,181.198 261.5,182.5C 262.34,180.147 263.674,178.147 265.5,176.5 Z"/></g>
<g><path style="opacity:1" fill="#41201f" d="M 262.5,174.5 C 261.569,178.429 259.236,181.095 255.5,182.5C 257.862,179.808 260.196,177.141 262.5,174.5 Z"/></g>
<g><path style="opacity:1" fill="#db2534" d="M 265.5,176.5 C 263.674,178.147 262.34,180.147 261.5,182.5C 259.77,183.026 258.436,184.026 257.5,185.5C 257.158,186.338 256.492,186.672 255.5,186.5C 252.927,186.852 250.594,186.352 248.5,185C 251.191,184.844 253.524,184.011 255.5,182.5C 259.236,181.095 261.569,178.429 262.5,174.5C 264.598,173.086 265.598,173.752 265.5,176.5 Z"/></g>
<g><path style="opacity:1" fill="#efefef" d="M 283.5,174.5 C 283.897,173.475 284.563,173.308 285.5,174C 294.958,183.228 306.291,188.395 319.5,189.5C 319.5,191.167 319.5,192.833 319.5,194.5C 312.609,195.099 305.942,194.265 299.5,192C 292.882,187.221 287.548,181.387 283.5,174.5 Z"/></g>
<g><path style="opacity:1" fill="#a8a8a8" d="M 290.5,168.5 C 298.531,176.685 308.198,182.018 319.5,184.5C 319.5,185.5 319.5,186.5 319.5,187.5C 313.235,187.521 307.569,185.855 302.5,182.5C 297.413,178.747 293.413,174.081 290.5,168.5 Z"/></g>
<g><path style="opacity:1" fill="#7d1c21" d="M 267.5,172.5 C 266.596,173.209 266.263,174.209 266.5,175.5C 266.5,176.167 266.167,176.5 265.5,176.5C 265.598,173.752 264.598,173.086 262.5,174.5C 262.5,173.833 262.5,173.167 262.5,172.5C 262.833,172.5 263.167,172.5 263.5,172.5C 264.558,171.4 265.392,170.066 266,168.5C 266.791,169.745 267.291,171.078 267.5,172.5 Z"/></g>
<g><path style="opacity:1" fill="#f1f1f1" d="M 290.5,168.5 C 293.413,174.081 297.413,178.747 302.5,182.5C 296.084,180.258 290.584,176.592 286,171.5C 285.383,170.551 285.549,169.718 286.5,169C 287.793,168.51 289.127,168.343 290.5,168.5 Z"/></g>
<g><path style="opacity:1" fill="#59a3bf" d="M 284.5,164.5 C 285.675,164.281 286.675,164.614 287.5,165.5C 285.473,166.693 283.973,168.36 283,170.5C 282.252,168.16 282.752,166.16 284.5,164.5 Z"/></g>
<g><path style="opacity:0.024" fill="#6abee0" d="M 277.5,157.5 C 275.022,161.122 273.689,165.122 273.5,169.5C 271.585,169.784 269.919,169.451 268.5,168.5C 271.745,164.997 274.745,161.33 277.5,157.5 Z"/></g>
<g><path style="opacity:0.006" fill="#67b8d8" d="M 266.5,162.5 C 267.931,163.78 268.598,165.447 268.5,167.5C 267.069,166.22 266.402,164.553 266.5,162.5 Z"/></g>
<g><path style="opacity:1" fill="#979899" d="M 283.5,159.5 C 284.478,159.811 285.145,160.478 285.5,161.5C 281.91,163.817 280.577,167.151 281.5,171.5C 279.873,167.208 280.539,163.208 283.5,159.5 Z"/></g>
<g><path style="opacity:1" fill="#f1f2f2" d="M 283.5,159.5 C 280.539,163.208 279.873,167.208 281.5,171.5C 285.383,183.662 293.383,192.162 305.5,197C 311.341,198.951 317.341,199.784 323.5,199.5C 323.5,200.5 323.5,201.5 323.5,202.5C 304.96,203.563 290.293,196.563 279.5,181.5C 273.913,173.399 274.246,165.566 280.5,158C 281.998,157.415 282.998,157.915 283.5,159.5 Z"/></g>
<g><path style="opacity:0.008" fill="#62aecb" d="M 264.5,149.5 C 264.616,152.86 264.949,156.193 265.5,159.5C 263.469,156.292 263.135,152.959 264.5,149.5 Z"/></g>
<g><path style="opacity:1" fill="#a8a8a8" d="M 261.5,149.5 C 261.863,155.263 262.863,160.93 264.5,166.5C 264.16,168.512 263.827,170.512 263.5,172.5C 263.167,172.5 262.833,172.5 262.5,172.5C 261.131,167.617 260.464,162.617 260.5,157.5C 260.503,154.645 260.836,151.978 261.5,149.5 Z"/></g>
<g><path style="opacity:0.008" fill="#66b3d2" d="M 268.5,142.5 C 268.771,144.38 268.104,145.713 266.5,146.5C 266.66,144.847 267.326,143.514 268.5,142.5 Z"/></g>
<g><path style="opacity:0.022" fill="#68b7d7" d="M 268.5,130.5 C 270.467,130.261 272.301,130.594 274,131.5C 274.853,135.469 275.519,139.469 276,143.5C 277.503,147.172 279.003,150.838 280.5,154.5C 280.132,156.175 279.132,157.175 277.5,157.5C 277.539,156.417 277.873,155.417 278.5,154.5C 276.572,148.318 273.905,142.651 270.5,137.5C 270.5,136.5 270.5,135.5 270.5,134.5C 271.95,135.658 272.95,135.158 273.5,133C 271.825,132.015 270.158,131.181 268.5,130.5 Z"/></g>
<g><path style="opacity:0.128" fill="#5fa4c0" d="M 264.5,127.5 C 265.338,127.842 265.672,128.508 265.5,129.5C 265.5,130.5 265.5,131.5 265.5,132.5C 267.781,132.077 269.448,132.744 270.5,134.5C 267.609,133.597 264.609,133.264 261.5,133.5C 261.402,131.447 262.069,129.78 263.5,128.5C 264.206,129.557 264.539,129.224 264.5,127.5 Z"/></g>
<g><path style="opacity:0.995" fill="#a0a0a1" d="M 274.5,121.5 C 274.5,123.833 274.5,126.167 274.5,128.5C 272.473,128.662 270.473,128.495 268.5,128C 267.62,126.644 267.286,125.144 267.5,123.5C 269.379,124.341 271.379,124.675 273.5,124.5C 273.263,123.209 273.596,122.209 274.5,121.5 Z"/></g>
<g><path style="opacity:1" fill="#f9f9f9" d="M 261.5,149.5 C 260.836,151.978 260.503,154.645 260.5,157.5C 260.464,162.617 261.131,167.617 262.5,172.5C 262.5,173.167 262.5,173.833 262.5,174.5C 260.196,177.141 257.862,179.808 255.5,182.5C 252.792,183.449 250.126,183.449 247.5,182.5C 244.359,172.531 243.693,162.364 245.5,152C 243.887,148.601 242.387,145.101 241,141.5C 240.324,127.844 246.824,121.677 260.5,123C 261.059,123.725 261.392,124.558 261.5,125.5C 260.24,128.423 259.74,131.423 260,134.5C 260.739,135.574 261.739,136.241 263,136.5C 264.882,135.394 266.716,135.394 268.5,136.5C 266.574,141.082 264.24,145.416 261.5,149.5 Z"/></g>
<g><path style="opacity:1" fill="#272727" d="M 256.5,138.5 C 257.239,138.369 257.906,138.536 258.5,139C 257.137,140.945 256.303,143.112 256,145.5C 255.444,143.115 255.61,140.782 256.5,138.5 Z"/></g>
<g><path style="opacity:0.082" fill="#5694ad" d="M 263.5,120.5 C 265.742,122.452 266.076,124.785 264.5,127.5C 264.167,127.5 263.833,127.5 263.5,127.5C 263.675,125.379 263.341,123.379 262.5,121.5C 263.167,121.5 263.5,121.167 263.5,120.5 Z"/></g>
<g><path style="opacity:1" fill="#c6212f" d="M 267.5,106.5 C 268.097,106.735 268.43,107.235 268.5,108C 267.446,111.824 266.446,115.657 265.5,119.5C 265.167,118.5 264.833,117.5 264.5,116.5C 265.104,113.024 266.104,109.691 267.5,106.5 Z"/></g>
<g><path style="opacity:1" fill="#efefef" d="M 274.5,121.5 C 273.596,122.209 273.263,123.209 273.5,124.5C 271.379,124.675 269.379,124.341 267.5,123.5C 268.214,117.095 269.381,110.761 271,104.5C 271.196,102.714 272.029,101.381 273.5,100.5C 281.108,101.394 281.442,103.228 274.5,106C 275.516,106.519 276.182,107.353 276.5,108.5C 275.087,112.723 274.421,117.057 274.5,121.5 Z"/></g>
<g><path style="opacity:1" fill="#e7a8ac" d="M 218.5,225.5 C 227.039,228.559 235.039,232.559 242.5,237.5C 246.039,240.777 249.372,244.277 252.5,248C 251.552,248.483 250.552,248.649 249.5,248.5C 238.327,235.872 224.327,228.039 207.5,225C 195.543,223.468 183.543,223.135 171.5,224C 165.187,224.764 159.187,226.264 153.5,228.5C 153.167,228.5 152.833,228.5 152.5,228.5C 151.508,228.672 150.842,228.338 150.5,227.5C 172.981,220.396 195.648,219.729 218.5,225.5 Z"/></g>
<g><path style="opacity:1" fill="#cd143b" d="M 249.5,248.5 C 247.5,248.5 245.5,248.5 243.5,248.5C 223.574,249.135 205.574,243.635 189.5,232C 177.824,227.555 165.824,226.388 153.5,228.5C 159.187,226.264 165.187,224.764 171.5,224C 183.543,223.135 195.543,223.468 207.5,225C 224.327,228.039 238.327,235.872 249.5,248.5 Z"/></g>
<g><path style="opacity:0.033" fill="#4babcf" d="M 396.5,222.5 C 396.771,224.38 396.104,225.713 394.5,226.5C 394.66,224.847 395.326,223.514 396.5,222.5 Z"/></g>
<g><path style="opacity:1" fill="#8b0b27" d="M 243.5,248.5 C 229.226,250.783 214.893,253.449 200.5,256.5C 198.199,256.016 196.199,255.016 194.5,253.5C 182.641,241.57 168.641,233.237 152.5,228.5C 152.833,228.5 153.167,228.5 153.5,228.5C 165.824,226.388 177.824,227.555 189.5,232C 205.574,243.635 223.574,249.135 243.5,248.5 Z"/></g>
<g><path style="opacity:0.022" fill="#4ba9cc" d="M 394.5,226.5 C 394.727,228.933 393.727,230.599 391.5,231.5C 392.11,229.566 393.11,227.899 394.5,226.5 Z"/></g>
<g><path style="opacity:0.995" fill="#222d34" d="M 159.5,222.5 C 157.22,223.767 154.72,224.767 152,225.5C 150.97,225.836 150.47,226.503 150.5,227.5C 150.842,228.338 151.508,228.672 152.5,228.5C 168.641,233.237 182.641,241.57 194.5,253.5C 194.5,254.5 194.5,255.5 194.5,256.5C 182.483,245.815 168.816,237.648 153.5,232C 149.855,231.281 146.188,230.781 142.5,230.5C 142.33,229.178 142.663,228.011 143.5,227C 148.67,224.875 154.003,223.375 159.5,222.5 Z"/></g>
<g><path style="opacity:0.998" fill="#28333a" d="M 218.5,225.5 C 219.919,224.549 221.585,224.216 223.5,224.5C 231.798,227.312 239.132,231.645 245.5,237.5C 244.5,237.5 243.5,237.5 242.5,237.5C 235.039,232.559 227.039,228.559 218.5,225.5 Z"/></g>
<g><path style="opacity:0.012" fill="#459cbc" d="M 390.5,232.5 C 390.573,234.027 389.906,235.027 388.5,235.5C 388.427,233.973 389.094,232.973 390.5,232.5 Z"/></g>
<g><path style="opacity:0.016" fill="#4cadd1" d="M 388.5,235.5 C 388.167,237.833 386.833,239.167 384.5,239.5C 385.5,237.833 386.833,236.5 388.5,235.5 Z"/></g>
<g><path style="opacity:0.015" fill="#5cb3d5" d="M 266.5,224.5 C 264.036,232.956 266.703,239.123 274.5,243C 272.138,244.511 269.805,246.011 267.5,247.5C 264.5,247.5 261.5,247.5 258.5,247.5C 261.305,246.681 264.305,246.181 267.5,246C 268.357,245.311 269.023,244.478 269.5,243.5C 266.556,239.57 264.556,235.237 263.5,230.5C 263.467,227.898 264.467,225.898 266.5,224.5 Z"/></g>
<g><path style="opacity:0.004" fill="#4baace" d="M 384.5,239.5 C 382.5,242.5 380.5,245.5 378.5,248.5C 377.733,247.828 377.066,246.995 376.5,246C 379.331,243.999 381.997,241.833 384.5,239.5 Z"/></g>
<g><path style="opacity:0.031" fill="#4dafd6" d="M 378.5,248.5 C 380.026,249.492 380.693,250.992 380.5,253C 380.607,255.221 379.94,257.054 378.5,258.5C 379.707,255.148 379.707,251.814 378.5,248.5 Z"/></g>
<g><path style="opacity:0.078" fill="#439dbe" d="M 378.5,258.5 C 378.573,260.027 377.906,261.027 376.5,261.5C 376.427,259.973 377.094,258.973 378.5,258.5 Z"/></g>
<g><path style="opacity:0.333" fill="#5aa4c2" d="M 189.5,260.5 C 189.34,262.153 188.674,263.486 187.5,264.5C 187.229,262.62 187.896,261.287 189.5,260.5 Z"/></g>
<g><path style="opacity:0.129" fill="#66bada" d="M 187.5,264.5 C 187.715,266.179 187.048,267.179 185.5,267.5C 185.932,266.29 186.599,265.29 187.5,264.5 Z"/></g>
<g><path style="opacity:0.498" fill="#5193ae" d="M 185.5,267.5 C 184.486,268.674 183.153,269.34 181.5,269.5C 182.287,267.896 183.62,267.229 185.5,267.5 Z"/></g>
<g><path style="opacity:0.102" fill="#48a9ce" d="M 376.5,261.5 C 374.874,265.427 375.207,269.094 377.5,272.5C 376.504,272.586 375.671,272.252 375,271.5C 374.333,268.5 374.333,265.5 375,262.5C 375.383,261.944 375.883,261.611 376.5,261.5 Z"/></g>
<g><path style="opacity:1" fill="#171819" d="M 251.5,188.5 C 253.167,189.167 254.833,189.833 256.5,190.5C 264.151,194.785 272.317,196.118 281,194.5C 281.497,197.146 281.664,199.813 281.5,202.5C 280.039,209.276 279.372,216.276 279.5,223.5C 279.501,228.013 279.834,232.347 280.5,236.5C 279.791,237.404 278.791,237.737 277.5,237.5C 274.108,236.436 272.108,234.103 271.5,230.5C 272.714,226.957 274.714,223.957 277.5,221.5C 277.167,220.833 276.833,220.167 276.5,219.5C 271.152,221.835 268.152,225.835 267.5,231.5C 268.726,237.228 272.226,240.895 278,242.5C 279.728,242.101 281.228,241.434 282.5,240.5C 286.813,241.01 290.813,240.343 294.5,238.5C 295.167,238.5 295.5,238.833 295.5,239.5C 295.782,240.778 296.449,241.778 297.5,242.5C 292.382,242.527 287.048,242.694 281.5,243C 276.703,244.462 272.369,246.796 268.5,250C 269.823,250.816 270.489,251.983 270.5,253.5C 271.255,256.053 271.922,258.72 272.5,261.5C 270.302,261.409 269.969,262.075 271.5,263.5C 268.161,265.567 264.494,266.9 260.5,267.5C 263.799,277.171 269.799,282.838 278.5,284.5C 275.134,284.212 271.8,284.046 268.5,284C 267.335,285.992 266.002,287.825 264.5,289.5C 259.959,295.499 259.459,301.832 263,308.5C 263.816,309.823 264.983,310.489 266.5,310.5C 274.011,311.574 279.677,308.574 283.5,301.5C 285.017,301.489 286.184,300.823 287,299.5C 289.732,295.759 292.066,291.759 294,287.5C 294.684,288.784 294.517,289.951 293.5,291C 294.998,291.585 295.998,291.085 296.5,289.5C 308.179,280.984 320.345,280.318 333,287.5C 334.31,286.87 335.144,285.87 335.5,284.5C 336.167,284.5 336.833,284.5 337.5,284.5C 337.5,285.5 337.5,286.5 337.5,287.5C 336.903,287.735 336.57,288.235 336.5,289C 338.255,294.011 340.422,298.844 343,303.5C 343.671,304.252 344.504,304.586 345.5,304.5C 348.938,312.446 354.938,315.946 363.5,315C 367.08,312.282 368.746,308.615 368.5,304C 367.961,298.547 365.961,293.713 362.5,289.5C 358.833,288.833 355.167,288.167 351.5,287.5C 361.364,287.247 368.03,282.58 371.5,273.5C 372.404,272.791 372.737,271.791 372.5,270.5C 372.5,268.833 372.5,267.167 372.5,265.5C 368.517,266.428 365.85,265.095 364.5,261.5C 365.167,261.5 365.5,261.167 365.5,260.5C 369.784,264.412 373.117,263.412 375.5,257.5C 376.947,253.487 376.613,249.487 374.5,245.5C 379.161,241.506 383.494,237.173 387.5,232.5C 390.159,229.191 392.326,225.524 394,221.5C 394.579,220.072 394.412,218.738 393.5,217.5C 394.573,216.749 394.74,215.749 394,214.5C 392.855,213.364 391.688,212.364 390.5,211.5C 391.376,211.631 392.043,211.298 392.5,210.5C 390.474,207.482 388.474,204.482 386.5,201.5C 386.842,200.662 387.508,200.328 388.5,200.5C 389.08,202.749 390.413,204.415 392.5,205.5C 392.427,207.027 393.094,208.027 394.5,208.5C 396.112,212.994 396.778,217.661 396.5,222.5C 395.326,223.514 394.66,224.847 394.5,226.5C 393.11,227.899 392.11,229.566 391.5,231.5C 391.5,232.167 391.167,232.5 390.5,232.5C 389.094,232.973 388.427,233.973 388.5,235.5C 386.833,236.5 385.5,237.833 384.5,239.5C 381.997,241.833 379.331,243.999 376.5,246C 377.066,246.995 377.733,247.828 378.5,248.5C 379.707,251.814 379.707,255.148 378.5,258.5C 377.094,258.973 376.427,259.973 376.5,261.5C 375.883,261.611 375.383,261.944 375,262.5C 374.333,265.5 374.333,268.5 375,271.5C 375.671,272.252 376.504,272.586 377.5,272.5C 377.833,272.5 378.167,272.5 378.5,272.5C 377.833,273.167 377.167,273.833 376.5,274.5C 375.85,274.196 375.183,273.863 374.5,273.5C 371.077,276.979 370.077,280.979 371.5,285.5C 373.821,303.733 374.154,322.067 372.5,340.5C 370.401,346.246 369.234,352.246 369,358.5C 381.385,353.059 393.218,346.726 404.5,339.5C 405.833,340.5 405.833,341.5 404.5,342.5C 403.035,343.737 401.368,344.737 399.5,345.5C 397.973,345.427 396.973,346.094 396.5,347.5C 396.158,348.338 395.492,348.672 394.5,348.5C 392.847,348.66 391.514,349.326 390.5,350.5C 384.649,354.594 378.315,357.927 371.5,360.5C 369.447,360.402 367.78,361.069 366.5,362.5C 364.447,362.402 362.78,363.069 361.5,364.5C 359.447,364.402 357.78,365.069 356.5,366.5C 323.424,377.29 289.757,382.957 255.5,383.5C 251.08,389.256 245.747,393.922 239.5,397.5C 236.994,398.75 234.327,399.416 231.5,399.5C 235.167,396.833 238.833,394.167 242.5,391.5C 246.622,389.213 249.955,386.046 252.5,382C 234.367,379.696 216.367,377.029 198.5,374C 184.987,387.495 168.987,396.828 150.5,402C 151.527,402.513 152.527,403.013 153.5,403.5C 174.32,409.561 195.32,410.061 216.5,405C 221.304,403.428 225.971,401.595 230.5,399.5C 231.833,400.5 231.833,401.5 230.5,402.5C 228.574,404.293 226.241,405.293 223.5,405.5C 217.308,406.878 211.308,408.545 205.5,410.5C 194.168,411.789 182.835,411.789 171.5,410.5C 168.411,409.215 165.078,408.549 161.5,408.5C 159.901,408.768 158.568,408.434 157.5,407.5C 155.485,406.076 153.152,405.41 150.5,405.5C 147.984,405.245 145.65,404.411 143.5,403C 142.549,402.282 142.383,401.449 143,400.5C 146.683,399.136 150.516,398.469 154.5,398.5C 157.649,398.585 160.316,397.585 162.5,395.5C 173.293,390.043 183.293,383.377 192.5,375.5C 196.61,373.254 196.277,371.921 191.5,371.5C 189.862,369.104 188.696,366.438 188,363.5C 186.007,362.086 183.84,361.086 181.5,360.5C 180.415,358.413 178.749,357.08 176.5,356.5C 175.958,353.081 173.958,351.414 170.5,351.5C 169.486,350.326 168.153,349.66 166.5,349.5C 166.027,348.094 165.027,347.427 163.5,347.5C 160.393,343.066 157.726,338.399 155.5,333.5C 153.97,326.762 152.97,319.929 152.5,313C 153.265,307.11 154.265,301.277 155.5,295.5C 156.86,293.954 157.86,292.12 158.5,290C 158.164,288.97 157.497,288.47 156.5,288.5C 151.199,288.35 146.533,286.683 142.5,283.5C 142.977,282.522 143.643,281.689 144.5,281C 150.694,280.273 156.86,280.439 163,281.5C 167.312,279.786 171.478,277.786 175.5,275.5C 177.833,273.833 179.833,271.833 181.5,269.5C 183.153,269.34 184.486,268.674 185.5,267.5C 187.048,267.179 187.715,266.179 187.5,264.5C 188.674,263.486 189.34,262.153 189.5,260.5C 190.591,258.466 192.257,257.132 194.5,256.5C 194.5,255.5 194.5,254.5 194.5,253.5C 196.199,255.016 198.199,256.016 200.5,256.5C 214.893,253.449 229.226,250.783 243.5,248.5C 245.5,248.5 247.5,248.5 249.5,248.5C 250.552,248.649 251.552,248.483 252.5,248C 249.372,244.277 246.039,240.777 242.5,237.5C 243.5,237.5 244.5,237.5 245.5,237.5C 248.764,239.094 251.431,241.427 253.5,244.5C 253.511,246.017 254.177,247.184 255.5,248C 259.689,248.812 263.689,248.645 267.5,247.5C 269.805,246.011 272.138,244.511 274.5,243C 266.703,239.123 264.036,232.956 266.5,224.5C 268.239,221.757 270.573,219.757 273.5,218.5C 275.17,218.249 276.67,217.582 278,216.5C 278.556,210.165 279.056,203.832 279.5,197.5C 276.5,197.5 273.5,197.5 270.5,197.5C 266.8,195.719 262.8,194.719 258.5,194.5C 256.819,192.992 254.819,191.992 252.5,191.5C 252.047,190.542 251.381,189.708 250.5,189C 250.728,188.601 251.062,188.435 251.5,188.5 Z M 361.5,214.5 C 363.215,216.882 365.215,218.882 367.5,220.5C 367.5,220.833 367.5,221.167 367.5,221.5C 365.926,223.102 365.259,225.102 365.5,227.5C 363.896,228.287 363.229,229.62 363.5,231.5C 361.412,233.336 360.079,235.669 359.5,238.5C 358.127,238.657 356.793,238.49 355.5,238C 356.444,235.281 356.777,232.448 356.5,229.5C 357.64,224.326 359.307,219.326 361.5,214.5 Z"/></g>
<g><path style="opacity:1" fill="#aeaeae" d="M 344.5,272.5 C 343.817,277.387 342.817,282.22 341.5,287C 342.234,291.167 342.9,295.333 343.5,299.5C 341.5,295.5 339.5,291.5 337.5,287.5C 337.5,286.5 337.5,285.5 337.5,284.5C 338.91,280.603 339.91,276.603 340.5,272.5C 341.833,272.5 343.167,272.5 344.5,272.5 Z"/></g>
<g><path style="opacity:0.999" fill="#f1f1f1" d="M 184.5,270.5 C 185.239,270.369 185.906,270.536 186.5,271C 184.665,275.004 183.332,279.17 182.5,283.5C 179.833,283.5 177.167,283.5 174.5,283.5C 176.301,278.027 179.634,273.694 184.5,270.5 Z"/></g>
<g><path style="opacity:1" fill="#941b25" d="M 341.5,269.5 C 343.5,269.5 345.5,269.5 347.5,269.5C 348.873,269.343 350.207,269.51 351.5,270C 349.292,270.191 347.292,270.691 345.5,271.5C 343.801,271.66 342.134,271.494 340.5,271C 341.056,270.617 341.389,270.117 341.5,269.5 Z"/></g>
<g><path style="opacity:1" fill="#aeaeae" d="M 285.5,269.5 C 287.5,269.5 289.5,269.5 291.5,269.5C 292.177,274.52 292.677,279.52 293,284.5C 290.006,290.311 286.839,295.978 283.5,301.5C 279.677,308.574 274.011,311.574 266.5,310.5C 272.607,310.359 277.44,307.693 281,302.5C 284.735,297.197 287.235,291.364 288.5,285C 286.556,280.006 285.556,274.839 285.5,269.5 Z"/></g>
<g><path style="opacity:1" fill="#f8f8f8" d="M 360.5,268.5 C 364.313,269.908 367.98,271.574 371.5,273.5C 368.03,282.58 361.364,287.247 351.5,287.5C 355.167,288.167 358.833,288.833 362.5,289.5C 365.961,293.713 367.961,298.547 368.5,304C 368.746,308.615 367.08,312.282 363.5,315C 354.938,315.946 348.938,312.446 345.5,304.5C 344.833,302.833 344.167,301.167 343.5,299.5C 342.9,295.333 342.234,291.167 341.5,287C 342.817,282.22 343.817,277.387 344.5,272.5C 345.167,272.5 345.5,272.167 345.5,271.5C 349.489,271.884 353.155,271.217 356.5,269.5C 357.959,269.567 359.292,269.234 360.5,268.5 Z"/></g>
<g><path style="opacity:1" fill="#3a2121" d="M 359.5,266.5 C 357.438,267.776 355.104,268.61 352.5,269C 353.793,269.49 355.127,269.657 356.5,269.5C 353.155,271.217 349.489,271.884 345.5,271.5C 347.292,270.691 349.292,270.191 351.5,270C 350.207,269.51 348.873,269.343 347.5,269.5C 347.5,269.167 347.5,268.833 347.5,268.5C 351.5,267.833 355.5,267.167 359.5,266.5 Z"/></g>
<g><path style="opacity:1" fill="#771a1f" d="M 359.5,266.5 C 362.925,266.367 363.258,267.033 360.5,268.5C 359.292,269.234 357.959,269.567 356.5,269.5C 355.127,269.657 353.793,269.49 352.5,269C 355.104,268.61 357.438,267.776 359.5,266.5 Z"/></g>
<g><path style="opacity:1" fill="#5c2524" d="M 272.5,261.5 C 276.172,262.835 279.838,264.168 283.5,265.5C 284.568,266.434 285.901,266.768 287.5,266.5C 288.609,267.29 289.942,267.79 291.5,268C 289.527,268.495 287.527,268.662 285.5,268.5C 280.205,268.351 275.538,266.684 271.5,263.5C 269.969,262.075 270.302,261.409 272.5,261.5 Z"/></g>
<g><path style="opacity:1" fill="#fbfbfb" d="M 271.5,263.5 C 275.538,266.684 280.205,268.351 285.5,268.5C 285.5,268.833 285.5,269.167 285.5,269.5C 285.556,274.839 286.556,280.006 288.5,285C 287.235,291.364 284.735,297.197 281,302.5C 277.44,307.693 272.607,310.359 266.5,310.5C 264.983,310.489 263.816,309.823 263,308.5C 259.459,301.832 259.959,295.499 264.5,289.5C 266.544,288.969 268.211,287.802 269.5,286C 272.695,285.819 275.695,285.319 278.5,284.5C 269.799,282.838 263.799,277.171 260.5,267.5C 264.494,266.9 268.161,265.567 271.5,263.5 Z"/></g>
<g><path style="opacity:1" fill="#1e6c9d" d="M 364.5,261.5 C 365.85,265.095 368.517,266.428 372.5,265.5C 372.5,267.167 372.5,268.833 372.5,270.5C 366.753,271.134 363.42,268.634 362.5,263C 362.324,260.641 362.991,260.141 364.5,261.5 Z"/></g>
<g><path style="opacity:1" fill="#fbfbfb" d="M 337.5,276.5 C 337.037,279.221 336.371,281.888 335.5,284.5C 335.144,285.87 334.31,286.87 333,287.5C 320.345,280.318 308.179,280.984 296.5,289.5C 296.091,284.737 295.424,279.737 294.5,274.5C 303.526,260.421 315.526,257.588 330.5,266C 334.219,268.612 336.552,272.112 337.5,276.5 Z"/></g>
<g><path style="opacity:1" fill="#adadad" d="M 337.5,276.5 C 336.552,272.112 334.219,268.612 330.5,266C 315.526,257.588 303.526,260.421 294.5,274.5C 293.123,267.982 295.123,262.815 300.5,259C 308.509,255.11 316.842,254.443 325.5,257C 335.314,260.156 339.314,266.656 337.5,276.5 Z"/></g>
<g><path style="opacity:1" fill="#268fcf" d="M 270.5,253.5 C 271.811,261.514 268.478,265.514 260.5,265.5C 260.271,259.628 262.438,254.962 267,251.5C 268.303,251.978 269.469,252.645 270.5,253.5 Z"/></g>
<g><path style="opacity:1" fill="#fafafa" d="M 260.5,274.5 C 261.09,278.603 262.09,282.603 263.5,286.5C 262.28,290.308 260.113,293.308 257,295.5C 233.363,290.472 209.53,286.805 185.5,284.5C 186.515,276.272 188.849,268.438 192.5,261C 213.752,254.568 235.419,251.401 257.5,251.5C 259.787,255.69 260.121,260.023 258.5,264.5C 258.55,267.976 259.217,271.31 260.5,274.5 Z"/></g>
<g><path style="opacity:1" fill="#e1e1e1" d="M 260.5,250.5 C 263.774,250.628 263.941,251.961 261,254.5C 260.51,253.207 260.343,251.873 260.5,250.5 Z"/></g>
<g><path style="opacity:1" fill="#a9a9a9" d="M 321.5,240.5 C 321.183,243.572 321.516,246.572 322.5,249.5C 331.764,251.042 338.93,255.709 344,263.5C 344.494,265.134 344.66,266.801 344.5,268.5C 345.5,268.5 346.5,268.5 347.5,268.5C 347.5,268.833 347.5,269.167 347.5,269.5C 345.5,269.5 343.5,269.5 341.5,269.5C 338.082,260.276 331.416,255.109 321.5,254C 320.333,253.5 319.5,252.667 319,251.5C 318.29,252.973 317.124,253.64 315.5,253.5C 315.205,251.265 315.539,249.265 316.5,247.5C 316.369,248.376 316.702,249.043 317.5,249.5C 318.169,247.369 318.835,245.369 319.5,243.5C 319.343,244.873 319.51,246.207 320,247.5C 320.186,244.964 320.686,242.631 321.5,240.5 Z"/></g>
<g><path style="opacity:1" fill="#afafaf" d="M 287.5,266.5 C 285.901,266.768 284.568,266.434 283.5,265.5C 284.675,265.719 285.675,265.386 286.5,264.5C 289.902,258.459 294.902,254.292 301.5,252C 305.453,250.852 309.453,250.018 313.5,249.5C 314.014,243.178 314.347,236.845 314.5,230.5C 311.873,229.908 309.206,229.575 306.5,229.5C 306.217,235.737 303.217,240.07 297.5,242.5C 296.449,241.778 295.782,240.778 295.5,239.5C 298.987,236.657 301.321,232.991 302.5,228.5C 307.145,227.532 311.812,227.532 316.5,228.5C 315.558,236.805 314.891,245.139 314.5,253.5C 304.563,252.801 297.229,256.801 292.5,265.5C 290.955,266.452 289.288,266.785 287.5,266.5 Z"/></g>
<g><path style="opacity:0.505" fill="#37697d" d="M 253.5,244.5 C 254.922,245.925 256.589,246.925 258.5,247.5C 261.5,247.5 264.5,247.5 267.5,247.5C 263.689,248.645 259.689,248.812 255.5,248C 254.177,247.184 253.511,246.017 253.5,244.5 Z"/></g>
<g><path style="opacity:1" fill="#ababab" d="M 387.5,232.5 C 383.494,237.173 379.161,241.506 374.5,245.5C 376.613,249.487 376.947,253.487 375.5,257.5C 375.473,252.538 374.639,247.871 373,243.5C 377.445,239.209 382.278,235.542 387.5,232.5 Z"/></g>
<g><path style="opacity:1" fill="#aaaaaa" d="M 339.5,231.5 C 342.332,238.097 347.332,242.097 354.5,243.5C 354.53,244.497 354.03,245.164 353,245.5C 345.586,243.587 341.086,238.92 339.5,231.5 Z"/></g>
<g><path style="opacity:1" fill="#a5a5a5" d="M 267.5,231.5 C 270.679,237.267 275.679,240.267 282.5,240.5C 281.228,241.434 279.728,242.101 278,242.5C 272.226,240.895 268.726,237.228 267.5,231.5 Z"/></g>
<g><path style="opacity:0.031" fill="#4ca4c6" d="M 363.5,231.5 C 362.921,234.331 361.588,236.664 359.5,238.5C 360.079,235.669 361.412,233.336 363.5,231.5 Z"/></g>
<g><path style="opacity:1" fill="#ececec" d="M 336.5,231.5 C 337.74,235.526 339.74,239.192 342.5,242.5C 338.21,241.485 335.877,238.652 335.5,234C 335.528,232.93 335.861,232.097 336.5,231.5 Z"/></g>
<g><path style="opacity:1" fill="#fbfbfb" d="M 361.5,259.5 C 361.815,262.211 361.148,264.544 359.5,266.5C 355.5,267.167 351.5,267.833 347.5,268.5C 346.5,268.5 345.5,268.5 344.5,268.5C 344.66,266.801 344.494,265.134 344,263.5C 338.93,255.709 331.764,251.042 322.5,249.5C 321.516,246.572 321.183,243.572 321.5,240.5C 321.5,240.167 321.5,239.833 321.5,239.5C 322.477,236.713 322.81,233.713 322.5,230.5C 325.167,230.5 327.833,230.5 330.5,230.5C 332.198,242.528 339.198,249.195 351.5,250.5C 349.993,252.969 350.327,255.135 352.5,257C 355.722,257.199 358.722,258.032 361.5,259.5 Z"/></g>
<g><path style="opacity:1" fill="#b0b0b0" d="M 336.5,231.5 C 335.861,232.097 335.528,232.93 335.5,234C 335.877,238.652 338.21,241.485 342.5,242.5C 342.938,242.435 343.272,242.601 343.5,243C 342.692,243.308 342.025,243.808 341.5,244.5C 345.201,245.344 348.701,246.677 352,248.5C 352.236,250.764 352.736,252.931 353.5,255C 356.167,255 358.833,255 361.5,255C 362.801,256.616 362.801,258.116 361.5,259.5C 358.722,258.032 355.722,257.199 352.5,257C 350.327,255.135 349.993,252.969 351.5,250.5C 339.198,249.195 332.198,242.528 330.5,230.5C 327.833,230.5 325.167,230.5 322.5,230.5C 322.81,233.713 322.477,236.713 321.5,239.5C 321.5,236.167 321.5,232.833 321.5,229.5C 326.944,228.892 331.944,229.558 336.5,231.5 Z"/></g>
<g><path style="opacity:1" fill="#ebecec" d="M 319.5,243.5 C 318.835,245.369 318.169,247.369 317.5,249.5C 316.702,249.043 316.369,248.376 316.5,247.5C 316.557,241.149 316.89,234.815 317.5,228.5C 318.5,228.5 319.5,228.5 320.5,228.5C 319.947,233.482 319.613,238.482 319.5,243.5 Z"/></g>
<g><path style="opacity:0.035" fill="#4fa9cc" d="M 365.5,227.5 C 365.34,229.153 364.674,230.486 363.5,231.5C 363.229,229.62 363.896,228.287 365.5,227.5 Z"/></g>
<g><path style="opacity:1" fill="#fafafa" d="M 283.5,265.5 C 279.838,264.168 276.172,262.835 272.5,261.5C 271.922,258.72 271.255,256.053 270.5,253.5C 270.489,251.983 269.823,250.816 268.5,250C 272.369,246.796 276.703,244.462 281.5,243C 287.048,242.694 292.382,242.527 297.5,242.5C 303.217,240.07 306.217,235.737 306.5,229.5C 309.206,229.575 311.873,229.908 314.5,230.5C 314.347,236.845 314.014,243.178 313.5,249.5C 309.453,250.018 305.453,250.852 301.5,252C 294.902,254.292 289.902,258.459 286.5,264.5C 285.675,265.386 284.675,265.719 283.5,265.5 Z"/></g>
<g><path style="opacity:0.016" fill="#4faacd" d="M 367.5,221.5 C 367.405,223.786 366.738,225.786 365.5,227.5C 365.259,225.102 365.926,223.102 367.5,221.5 Z"/></g>
<g><path style="opacity:1" fill="#a1a1a2" d="M 314.5,221.5 C 314.5,222.833 314.5,224.167 314.5,225.5C 310.774,225.823 307.107,225.489 303.5,224.5C 303.624,223.893 303.957,223.56 304.5,223.5C 308.266,225.151 311.6,224.484 314.5,221.5 Z"/></g>
<g><path style="opacity:1" fill="#e1e2e2" d="M 277.5,237.5 C 290.145,239.376 296.645,233.709 297,220.5C 299.753,219.221 301.253,220.221 301.5,223.5C 300.495,229.175 298.161,234.175 294.5,238.5C 290.813,240.343 286.813,241.01 282.5,240.5C 275.679,240.267 270.679,237.267 267.5,231.5C 268.152,225.835 271.152,221.835 276.5,219.5C 276.833,220.167 277.167,220.833 277.5,221.5C 274.714,223.957 272.714,226.957 271.5,230.5C 272.108,234.103 274.108,236.436 277.5,237.5 Z"/></g>
<g><path style="opacity:1" fill="#5bafd0" d="M 275.5,225.5 C 276.777,226.694 277.444,228.36 277.5,230.5C 277.456,236.574 276.123,236.574 273.5,230.5C 273.902,228.7 274.569,227.033 275.5,225.5 Z"/></g>
<g><path style="opacity:1" fill="#eeeeee" d="M 354.5,243.5 C 347.332,242.097 342.332,238.097 339.5,231.5C 338.612,228.946 338.279,226.279 338.5,223.5C 339.833,223.5 341.167,223.5 342.5,223.5C 341.738,233.892 346.405,240.059 356.5,242C 355.956,242.717 355.289,243.217 354.5,243.5 Z"/></g>
<g><path style="opacity:1" fill="#707171" d="M 338.5,219.5 C 338.917,218.876 339.584,218.543 340.5,218.5C 342.516,219.178 344.516,219.844 346.5,220.5C 346.005,222.482 345.505,224.482 345,226.5C 344.541,222.736 342.374,220.903 338.5,221C 341.097,220.221 341.097,219.721 338.5,219.5 Z"/></g>
<g><path style="opacity:1" fill="#817a79" d="M 376.5,216.5 C 377.167,216.5 377.833,216.5 378.5,216.5C 376.898,218.074 374.898,218.741 372.5,218.5C 373.514,217.326 374.847,216.66 376.5,216.5 Z"/></g>
<g><path style="opacity:1" fill="#5d6163" d="M 294.5,212.5 C 294.34,214.199 294.506,215.866 295,217.5C 299.339,214.58 302.505,215.58 304.5,220.5C 303.883,220.611 303.383,220.944 303,221.5C 300.814,216.653 298.148,216.32 295,220.5C 293.364,217.773 293.198,215.107 294.5,212.5 Z"/></g>
<g><path style="opacity:1" fill="#f8f8f8" d="M 393.5,217.5 C 394.412,218.738 394.579,220.072 394,221.5C 392.326,225.524 390.159,229.191 387.5,232.5C 382.278,235.542 377.445,239.209 373,243.5C 374.639,247.871 375.473,252.538 375.5,257.5C 373.117,263.412 369.784,264.412 365.5,260.5C 365.747,257.495 364.747,254.995 362.5,253C 354.307,254.84 352.474,252.007 357,244.5C 359.706,242.129 362.039,239.463 364,236.5C 366.572,230.234 369.406,224.234 372.5,218.5C 374.898,218.741 376.898,218.074 378.5,216.5C 383.604,215.096 388.604,215.429 393.5,217.5 Z"/></g>
<g><path style="opacity:1" fill="#aeaeae" d="M 356.5,213.5 C 355.413,221.189 354.08,228.856 352.5,236.5C 351.653,238.93 350.653,238.93 349.5,236.5C 349.645,228.071 351.979,220.405 356.5,213.5 Z"/></g>
<g><path style="opacity:0.596" fill="#428aa7" d="M 361.5,214.5 C 364.478,215.478 366.478,217.478 367.5,220.5C 365.215,218.882 363.215,216.882 361.5,214.5 Z"/></g>
<g><path style="opacity:0.02" fill="#4ea5c7" d="M 361.5,214.5 C 359.307,219.326 357.64,224.326 356.5,229.5C 356.274,223.737 357.607,218.403 360.5,213.5C 361.107,213.624 361.44,213.957 361.5,214.5 Z"/></g>
<g><path style="opacity:1" fill="#d42532" d="M 390.5,211.5 C 391.688,212.364 392.855,213.364 394,214.5C 394.74,215.749 394.573,216.749 393.5,217.5C 391.089,215.14 388.089,214.14 384.5,214.5C 381.514,214.382 378.848,215.048 376.5,216.5C 374.847,216.66 373.514,217.326 372.5,218.5C 371.957,218.44 371.624,218.107 371.5,217.5C 372.193,216.482 372.859,215.482 373.5,214.5C 374.514,213.326 375.847,212.66 377.5,212.5C 381.798,211.8 386.131,211.467 390.5,211.5 Z"/></g>
<g><path style="opacity:1" fill="#291919" d="M 393.5,217.5 C 388.604,215.429 383.604,215.096 378.5,216.5C 377.833,216.5 377.167,216.5 376.5,216.5C 378.848,215.048 381.514,214.382 384.5,214.5C 388.089,214.14 391.089,215.14 393.5,217.5 Z"/></g>
<g><path style="opacity:1" fill="#f8f8f8" d="M 302.5,211.5 C 305.689,212.166 309.023,212.833 312.5,213.5C 314.104,215.179 314.771,217.179 314.5,219.5C 314.5,220.167 314.5,220.833 314.5,221.5C 311.6,224.484 308.266,225.151 304.5,223.5C 304.5,222.5 304.5,221.5 304.5,220.5C 302.505,215.58 299.339,214.58 295,217.5C 294.506,215.866 294.34,214.199 294.5,212.5C 294.435,212.062 294.601,211.728 295,211.5C 295.333,212.167 295.667,212.833 296,213.5C 297.754,211.75 299.921,211.083 302.5,211.5 Z"/></g>
<g><path style="opacity:1" fill="#454545" d="M 304.5,210.5 C 308.835,210.917 313.168,211.417 317.5,212C 316.78,214.491 316.113,216.991 315.5,219.5C 315.167,219.5 314.833,219.5 314.5,219.5C 314.771,217.179 314.104,215.179 312.5,213.5C 309.023,212.833 305.689,212.166 302.5,211.5C 303.492,211.672 304.158,211.338 304.5,210.5 Z"/></g>
<g><path style="opacity:1" fill="#393435" d="M 390.5,211.5 C 386.131,211.467 381.798,211.8 377.5,212.5C 379.848,211.048 382.514,210.382 385.5,210.5C 387.369,210.507 389.036,210.84 390.5,211.5 Z"/></g>
<g><path style="opacity:1" fill="#a9a9a9" d="M 361.5,205.5 C 364.881,207.88 367.547,210.88 369.5,214.5C 369.719,215.675 369.386,216.675 368.5,217.5C 366.369,214.837 363.869,212.504 361,210.5C 360.616,208.803 360.782,207.137 361.5,205.5 Z"/></g>
<g><path style="opacity:1" fill="#f2f2f2" d="M 281.5,202.5 C 285.048,204.441 288.714,206.107 292.5,207.5C 291.613,213.145 291.446,218.812 292,224.5C 293.022,225.354 293.855,226.354 294.5,227.5C 291.899,233.775 287.233,236.775 280.5,236.5C 279.834,232.347 279.501,228.013 279.5,223.5C 279.372,216.276 280.039,209.276 281.5,202.5 Z"/></g>
<g><path style="opacity:1" fill="#a7a8a8" d="M 319.5,208.5 C 317.234,208.141 315.401,208.808 314,210.5C 313.161,209.376 311.994,208.709 310.5,208.5C 306.648,209.696 302.815,209.696 299,208.5C 297.316,208.683 297.15,209.35 298.5,210.5C 297.167,210.5 295.833,210.5 294.5,210.5C 294.401,207.327 295.068,204.327 296.5,201.5C 303.877,205.213 311.543,207.547 319.5,208.5 Z"/></g>
<g><path style="opacity:0.455" fill="#49859d" d="M 181.5,269.5 C 179.833,271.833 177.833,273.833 175.5,275.5C 176.5,272.5 178.5,270.5 181.5,269.5 Z"/></g>
<g><path style="opacity:1" fill="#f5bebf" d="M 376.5,274.5 C 385.529,279.01 394.196,284.01 402.5,289.5C 399.663,289.684 397.663,291.018 396.5,293.5C 388.567,289.634 380.234,286.967 371.5,285.5C 370.077,280.979 371.077,276.979 374.5,273.5C 375.183,273.863 375.85,274.196 376.5,274.5 Z"/></g>
<g><path style="opacity:1" fill="#a6a6a6" d="M 260.5,274.5 C 263.995,277.967 264.995,281.967 263.5,286.5C 262.09,282.603 261.09,278.603 260.5,274.5 Z"/></g>
<g><path style="opacity:1" fill="#a7a7a7" d="M 278.5,284.5 C 275.695,285.319 272.695,285.819 269.5,286C 268.211,287.802 266.544,288.969 264.5,289.5C 266.002,287.825 267.335,285.992 268.5,284C 271.8,284.046 275.134,284.212 278.5,284.5 Z"/></g>
<g><path style="opacity:1" fill="#25343d" d="M 378.5,272.5 C 388.493,276.825 397.826,282.159 406.5,288.5C 406.973,289.906 407.973,290.573 409.5,290.5C 414.527,293.345 419.194,296.679 423.5,300.5C 421.883,299.962 420.216,299.629 418.5,299.5C 416.833,298.833 415.167,298.167 413.5,297.5C 410.403,294.112 406.736,291.445 402.5,289.5C 394.196,284.01 385.529,279.01 376.5,274.5C 377.167,273.833 377.833,273.167 378.5,272.5 Z"/></g>
<g><path style="opacity:1" fill="#cc123b" d="M 371.5,285.5 C 380.234,286.967 388.567,289.634 396.5,293.5C 400.5,295.167 404.5,296.833 408.5,298.5C 416.321,302.577 423.988,306.91 431.5,311.5C 435.5,313.5 435.5,315.5 431.5,317.5C 419.855,323.322 408.189,329.156 396.5,335C 388.654,338.337 380.654,341.17 372.5,343.5C 372.5,342.5 372.5,341.5 372.5,340.5C 374.154,322.067 373.821,303.733 371.5,285.5 Z"/></g>
<g><path style="opacity:1" fill="#2985a1" d="M 335.5,293.5 C 336.674,294.514 337.34,295.847 337.5,297.5C 336.542,297.047 335.708,296.381 335,295.5C 334.601,295.728 334.435,296.062 334.5,296.5C 322.138,287.218 309.804,287.218 297.5,296.5C 297.443,295.391 297.11,294.391 296.5,293.5C 296.833,292.5 297.5,291.833 298.5,291.5C 306.035,287.69 314.035,286.523 322.5,288C 326.947,289.39 330.947,291.556 334.5,294.5C 335.107,294.376 335.44,294.043 335.5,293.5 Z"/></g>
<g><path style="opacity:1" fill="#d5e0e3" d="M 335.5,293.5 C 335.44,294.043 335.107,294.376 334.5,294.5C 330.947,291.556 326.947,289.39 322.5,288C 314.035,286.523 306.035,287.69 298.5,291.5C 303.385,287.037 309.219,285.037 316,285.5C 320.406,285.236 324.573,286.069 328.5,288C 331.595,288.935 333.929,290.769 335.5,293.5 Z"/></g>
<g><path style="opacity:1" fill="#c5163a" d="M 163.5,287.5 C 184.186,289.669 204.853,292.169 225.5,295C 234.419,296.314 243.086,298.147 251.5,300.5C 231.199,302.298 210.866,303.465 190.5,304C 189.5,303.667 188.5,303.333 187.5,303C 186.214,299.847 184.214,297.181 181.5,295C 175.521,292.182 169.521,289.682 163.5,287.5 Z"/></g>
<g><path style="opacity:0.004" fill="#3e9abe" d="M 406.5,288.5 C 408.027,288.427 409.027,289.094 409.5,290.5C 407.973,290.573 406.973,289.906 406.5,288.5 Z"/></g>
<g><path style="opacity:1" fill="#fbe2e2" d="M 402.5,289.5 C 406.736,291.445 410.403,294.112 413.5,297.5C 411.883,298.038 410.216,298.371 408.5,298.5C 404.5,296.833 400.5,295.167 396.5,293.5C 397.663,291.018 399.663,289.684 402.5,289.5 Z"/></g>
<g><path style="opacity:1" fill="#f4f4f4" d="M 160.5,299.5 C 162.531,299.972 164.198,300.972 165.5,302.5C 165.5,306.167 165.5,309.833 165.5,313.5C 163.265,313.205 161.265,313.539 159.5,314.5C 158.533,315.806 157.199,316.473 155.5,316.5C 154.489,307.613 156.156,299.279 160.5,291.5C 162.771,290.637 165.105,290.637 167.5,291.5C 167.167,293.5 166.833,295.5 166.5,297.5C 163.918,297.025 161.918,297.692 160.5,299.5 Z"/></g>
<g><path style="opacity:0.012" fill="#61b2d1" d="M 156.5,288.5 C 157.497,288.47 158.164,288.97 158.5,290C 157.86,292.12 156.86,293.954 155.5,295.5C 155.472,293.418 156.139,291.584 157.5,290C 156.944,289.617 156.611,289.117 156.5,288.5 Z"/></g>
<g><path style="opacity:1" fill="#f1b8ba" d="M 251.5,300.5 C 243.086,298.147 234.419,296.314 225.5,295C 204.853,292.169 184.186,289.669 163.5,287.5C 158.679,286.961 154.012,285.795 149.5,284C 184.471,285.716 219.138,290.05 253.5,297C 259.65,299.22 258.983,300.386 251.5,300.5 Z"/></g>
<g><path style="opacity:1" fill="#f2f2f2" d="M 178.5,311.5 C 177.609,312.11 176.609,312.443 175.5,312.5C 173.099,310.938 171.099,311.271 169.5,313.5C 168.833,314.5 168.167,315.5 167.5,316.5C 167.239,308.409 167.906,300.409 169.5,292.5C 170.675,292.281 171.675,292.614 172.5,293.5C 170.449,298.617 172.115,300.451 177.5,299C 178.126,298.25 178.626,297.416 179,296.5C 178.949,301.478 178.782,306.478 178.5,311.5 Z"/></g>
<g><path style="opacity:0.995" fill="#1d2425" d="M 125.5,296.5 C 127.961,297.531 130.627,298.198 133.5,298.5C 141.672,300.009 147.005,304.676 149.5,312.5C 149.64,318.536 149.307,324.536 148.5,330.5C 145.273,335.965 140.606,339.798 134.5,342C 133.207,342.49 131.873,342.657 130.5,342.5C 123.5,343.833 116.5,343.833 109.5,342.5C 107.485,341.076 105.152,340.41 102.5,340.5C 96.9292,339.088 91.5958,337.088 86.5,334.5C 85.713,332.896 84.3797,332.229 82.5,332.5C 81.5084,332.672 80.8417,332.338 80.5,331.5C 79.4863,330.326 78.153,329.66 76.5,329.5C 74.847,329.34 73.5137,328.674 72.5,327.5C 71.4863,326.326 70.153,325.66 68.5,325.5C 66.2198,324.36 63.8864,323.193 61.5,322C 60.5494,321.282 60.3828,320.449 61,319.5C 75.1718,310.102 90.3385,302.602 106.5,297C 112.855,295.367 119.188,295.201 125.5,296.5 Z"/></g>
<g><path style="opacity:0.067" fill="#5ba1bd" d="M 125.5,296.5 C 128.553,296.111 131.22,296.777 133.5,298.5C 130.627,298.198 127.961,297.531 125.5,296.5 Z"/></g>
<g><path style="opacity:1" fill="#999a9a" d="M 173.5,295.5 C 174.675,295.281 175.675,295.614 176.5,296.5C 174.948,297.798 173.948,297.465 173.5,295.5 Z"/></g>
<g><path style="opacity:1" fill="#3a6879" d="M 296.5,293.5 C 297.11,294.391 297.443,295.391 297.5,296.5C 296.25,298.932 294.75,301.266 293,303.5C 292.218,306.31 291.384,308.977 290.5,311.5C 289.094,311.973 288.427,312.973 288.5,314.5C 287.833,315.167 287.167,315.833 286.5,316.5C 285.994,306.975 289.327,299.308 296.5,293.5 Z"/></g>
<g><path style="opacity:1" fill="#474747" d="M 337.5,287.5 C 339.5,291.5 341.5,295.5 343.5,299.5C 344.167,301.167 344.833,302.833 345.5,304.5C 344.504,304.586 343.671,304.252 343,303.5C 340.422,298.844 338.255,294.011 336.5,289C 336.57,288.235 336.903,287.735 337.5,287.5 Z"/></g>
<g><path style="opacity:1" fill="#b9b9b9" d="M 371.5,307.5 C 371.167,307.5 370.833,307.5 370.5,307.5C 370.922,299.845 368.588,293.179 363.5,287.5C 364.865,286.059 366.365,284.726 368,283.5C 370.346,291.252 371.513,299.252 371.5,307.5 Z"/></g>
<g><path style="opacity:1" fill="#787878" d="M 160.5,299.5 C 162.5,299.5 164.5,299.5 166.5,299.5C 166.737,300.791 166.404,301.791 165.5,302.5C 164.198,300.972 162.531,299.972 160.5,299.5 Z"/></g>
<g><path style="opacity:1" fill="#fab500" d="M 126.5,299.5 C 130.902,299.926 134.902,301.26 138.5,303.5C 137.935,305.42 136.935,307.087 135.5,308.5C 130.934,307.193 126.267,306.526 121.5,306.5C 122.369,304.283 122.702,301.95 122.5,299.5C 123.833,299.5 125.167,299.5 126.5,299.5 Z"/></g>
<g><path style="opacity:1" fill="#0e1213" d="M 334.5,296.5 C 340.242,303.064 342.575,310.731 341.5,319.5C 339.606,326.28 335.94,331.947 330.5,336.5C 313.482,344.438 300.648,340.105 292,323.5C 290.844,319.582 290.344,315.582 290.5,311.5C 291.384,308.977 292.218,306.31 293,303.5C 294.75,301.266 296.25,298.932 297.5,296.5C 309.804,287.218 322.138,287.218 334.5,296.5 Z"/></g>
<g><path style="opacity:1" fill="#7c9da1" d="M 337.5,321.5 C 337.665,317.818 337.499,314.152 337,310.5C 336.626,308.509 335.793,306.842 334.5,305.5C 331.204,298.853 325.871,295.187 318.5,294.5C 313.862,293.195 309.196,293.528 304.5,295.5C 307.483,292.614 311.149,291.28 315.5,291.5C 329.821,293.154 337.821,301.154 339.5,315.5C 339.401,317.799 338.734,319.799 337.5,321.5 Z"/></g>
<g><path style="opacity:1" fill="#cdf3f8" d="M 318.5,294.5 C 325.871,295.187 331.204,298.853 334.5,305.5C 324.303,311.764 313.97,317.764 303.5,323.5C 299.695,318.908 298.195,313.574 299,307.5C 299.232,306.263 299.732,305.263 300.5,304.5C 306.473,301.179 312.473,297.845 318.5,294.5 Z"/></g>
<g><path style="opacity:1" fill="#a6e5ec" d="M 318.5,294.5 C 312.473,297.845 306.473,301.179 300.5,304.5C 301.028,303.153 301.195,301.819 301,300.5C 295.139,306.661 292.973,313.995 294.5,322.5C 290.698,310.91 294.031,301.91 304.5,295.5C 309.196,293.528 313.862,293.195 318.5,294.5 Z"/></g>
<g><path style="opacity:0.016" fill="#3a9abf" d="M 424.5,301.5 C 426.749,302.08 428.415,303.413 429.5,305.5C 427.251,304.92 425.585,303.587 424.5,301.5 Z"/></g>
<g><path style="opacity:1" fill="#adadad" d="M 250.5,303.5 C 227.988,309.872 204.988,314.538 181.5,317.5C 181.5,319.833 181.5,322.167 181.5,324.5C 180.835,321.351 180.502,318.018 180.5,314.5C 180.338,309.366 181.005,304.366 182.5,299.5C 183.29,302.79 185.29,304.956 188.5,306C 209.194,306.007 229.861,305.173 250.5,303.5 Z"/></g>
<g><path style="opacity:1" fill="#fdfdfd" d="M 260.5,309.5 C 259.592,315.579 261.092,320.912 265,325.5C 265.498,328.482 265.665,331.482 265.5,334.5C 264.582,342.844 263.582,351.177 262.5,359.5C 235.604,358.388 209.604,353.054 184.5,343.5C 182.929,337.273 181.929,330.939 181.5,324.5C 181.5,322.167 181.5,319.833 181.5,317.5C 204.988,314.538 227.988,309.872 250.5,303.5C 252.948,302.527 255.615,302.194 258.5,302.5C 258.878,304.921 259.545,307.254 260.5,309.5 Z"/></g>
<g><path style="opacity:1" fill="#eeb3b6" d="M 413.5,297.5 C 415.167,298.167 416.833,298.833 418.5,299.5C 422.833,303.5 427.167,307.5 431.5,311.5C 423.988,306.91 416.321,302.577 408.5,298.5C 410.216,298.371 411.883,298.038 413.5,297.5 Z"/></g>
<g><path style="opacity:1" fill="#f8fdfd" d="M 300.5,304.5 C 299.732,305.263 299.232,306.263 299,307.5C 298.195,313.574 299.695,318.908 303.5,323.5C 305.7,326.858 308.7,329.358 312.5,331C 318.658,331.729 324.658,331.396 330.5,330C 323.751,335.938 316.084,337.604 307.5,335C 302.982,332.296 298.982,329.129 295.5,325.5C 294.89,324.609 294.557,323.609 294.5,322.5C 292.973,313.995 295.139,306.661 301,300.5C 301.195,301.819 301.028,303.153 300.5,304.5 Z"/></g>
<g><path style="opacity:1" fill="#f87900" d="M 107.5,299.5 C 106.609,302.778 105.776,306.111 105,309.5C 102.948,310.793 100.781,311.793 98.5,312.5C 93.0286,314.712 87.6953,317.212 82.5,320C 87.3873,322.277 92.3873,324.277 97.5,326C 98.203,329.496 98.8697,332.996 99.5,336.5C 87.4024,332.784 76.069,327.451 65.5,320.5C 78.6855,311.907 92.6855,304.907 107.5,299.5 Z"/></g>
<g><path style="opacity:1" fill="#f6c401" d="M 138.5,303.5 C 145.116,306.726 148.116,312.059 147.5,319.5C 148.245,327.718 144.912,333.385 137.5,336.5C 136.532,334.393 136.198,332.059 136.5,329.5C 146.06,321.985 145.727,314.985 135.5,308.5C 136.935,307.087 137.935,305.42 138.5,303.5 Z"/></g>
<g><path style="opacity:1" fill="#acacac" d="M 284.5,320.5 C 280.156,325.004 274.822,327.337 268.5,327.5C 268.5,322.833 268.5,318.167 268.5,313.5C 275.343,312.995 280.843,309.995 285,304.5C 284.661,309.773 284.494,315.107 284.5,320.5 Z"/></g>
<g><path style="opacity:1" fill="#a4e8f0" d="M 334.5,305.5 C 335.793,306.842 336.626,308.509 337,310.5C 337.499,314.152 337.665,317.818 337.5,321.5C 335.424,329.41 330.424,334.577 322.5,337C 310.593,339.707 301.593,335.874 295.5,325.5C 298.982,329.129 302.982,332.296 307.5,335C 316.084,337.604 323.751,335.938 330.5,330C 324.658,331.396 318.658,331.729 312.5,331C 308.7,329.358 305.7,326.858 303.5,323.5C 313.97,317.764 324.303,311.764 334.5,305.5 Z"/></g>
<g><path style="opacity:1" fill="#faad00" d="M 119.5,306.5 C 119.606,309.228 119.272,312.061 118.5,315C 120.545,315.49 122.545,315.323 124.5,314.5C 125.477,317.287 125.81,320.287 125.5,323.5C 121.487,323.205 117.654,322.205 114,320.5C 113.5,320.833 113,321.167 112.5,321.5C 113.085,324.503 113.752,327.503 114.5,330.5C 119.354,332.153 124.354,332.819 129.5,332.5C 129.5,334.833 129.5,337.167 129.5,339.5C 129.082,340.222 128.416,340.722 127.5,341C 122.648,341.815 117.981,341.648 113.5,340.5C 114.643,337.498 114.643,334.498 113.5,331.5C 111.664,330.972 109.997,330.306 108.5,329.5C 108.17,322.468 108.503,315.468 109.5,308.5C 112.708,307.198 116.041,306.531 119.5,306.5 Z"/></g>
<g><path style="opacity:1" fill="#fafafa" d="M 370.5,307.5 C 370.833,307.5 371.167,307.5 371.5,307.5C 372.106,320.35 371.106,333.017 368.5,345.5C 335.01,355.808 300.677,360.808 265.5,360.5C 265.5,359.167 265.5,357.833 265.5,356.5C 266.653,346.842 267.653,337.175 268.5,327.5C 274.822,327.337 280.156,325.004 284.5,320.5C 292.327,344.079 307.994,351.579 331.5,343C 338.193,339.147 342.859,333.647 345.5,326.5C 348.333,328.478 351.333,330.311 354.5,332C 362.64,333.206 367.473,329.706 369,321.5C 369.498,318.518 369.665,315.518 369.5,312.5C 370.038,310.883 370.371,309.216 370.5,307.5 Z"/></g>
<g><path style="opacity:0.012" fill="#3693b8" d="M 433.5,309.5 C 438.519,311.051 439.519,313.718 436.5,317.5C 437.412,316.262 437.579,314.928 437,313.5C 435.624,312.295 434.458,310.962 433.5,309.5 Z"/></g>
<g><path style="opacity:1" fill="#fda300" d="M 126.5,299.5 C 125.167,299.5 123.833,299.5 122.5,299.5C 122.702,301.95 122.369,304.283 121.5,306.5C 120.833,306.5 120.167,306.5 119.5,306.5C 116.041,306.531 112.708,307.198 109.5,308.5C 108.503,315.468 108.17,322.468 108.5,329.5C 105.325,329.497 102.492,328.497 100,326.5C 99.7773,321.75 99.2773,317.084 98.5,312.5C 100.781,311.793 102.948,310.793 105,309.5C 105.776,306.111 106.609,302.778 107.5,299.5C 113.963,298.23 120.296,298.23 126.5,299.5 Z"/></g>
<g><path style="opacity:1" fill="#ababab" d="M 260.5,309.5 C 262.053,311.385 264.053,312.385 266.5,312.5C 266.825,320.019 266.492,327.352 265.5,334.5C 265.665,331.482 265.498,328.482 265,325.5C 261.092,320.912 259.592,315.579 260.5,309.5 Z"/></g>
<g><path style="opacity:1" fill="#1a1a1a" d="M 175.5,312.5 C 177.413,318.085 175.58,319.752 170,317.5C 169.51,316.207 169.343,314.873 169.5,313.5C 171.099,311.271 173.099,310.938 175.5,312.5 Z"/></g>
<g><path style="opacity:1" fill="#1c5d72" d="M 337.5,297.5 C 339.57,301.3 341.903,304.966 344.5,308.5C 343.517,312.298 343.183,316.298 343.5,320.5C 342.833,320.167 342.167,319.833 341.5,319.5C 342.575,310.731 340.242,303.064 334.5,296.5C 334.435,296.062 334.601,295.728 335,295.5C 335.708,296.381 336.542,297.047 337.5,297.5 Z"/></g>
<g><path style="opacity:0.995" fill="#1b1d22" d="M 418.5,299.5 C 420.216,299.629 421.883,299.962 423.5,300.5C 424.167,300.5 424.5,300.833 424.5,301.5C 425.585,303.587 427.251,304.92 429.5,305.5C 431.167,306.5 432.5,307.833 433.5,309.5C 434.458,310.962 435.624,312.295 437,313.5C 437.579,314.928 437.412,316.262 436.5,317.5C 436.5,318.833 435.833,319.5 434.5,319.5C 431.911,320.419 429.911,322.086 428.5,324.5C 426.781,327.219 424.447,329.219 421.5,330.5C 419.973,330.427 418.973,331.094 418.5,332.5C 418.5,333.167 418.167,333.5 417.5,333.5C 415.973,333.427 414.973,334.094 414.5,335.5C 412.883,336.038 411.216,336.371 409.5,336.5C 417.207,330.639 424.54,324.306 431.5,317.5C 435.5,315.5 435.5,313.5 431.5,311.5C 427.167,307.5 422.833,303.5 418.5,299.5 Z"/></g>
<g><path style="opacity:1" fill="#aeaeae" d="M 178.5,311.5 C 178.5,315.833 178.5,320.167 178.5,324.5C 175.962,324.507 173.462,324.841 171,325.5C 169.624,325.684 168.791,326.351 168.5,327.5C 167.518,324.038 167.185,320.371 167.5,316.5C 168.167,315.5 168.833,314.5 169.5,313.5C 169.343,314.873 169.51,316.207 170,317.5C 175.58,319.752 177.413,318.085 175.5,312.5C 176.609,312.443 177.609,312.11 178.5,311.5 Z"/></g>
<g><path style="opacity:1" fill="#98a0a2" d="M 344.5,308.5 C 346.167,314.843 345.501,320.843 342.5,326.5C 342.517,324.435 342.85,322.435 343.5,320.5C 343.183,316.298 343.517,312.298 344.5,308.5 Z"/></g>
<g><path style="opacity:1" fill="#fc9000" d="M 98.5,312.5 C 99.2773,317.084 99.7773,321.75 100,326.5C 102.492,328.497 105.325,329.497 108.5,329.5C 109.997,330.306 111.664,330.972 113.5,331.5C 114.643,334.498 114.643,337.498 113.5,340.5C 108.471,340.08 103.805,338.746 99.5,336.5C 98.8697,332.996 98.203,329.496 97.5,326C 92.3873,324.277 87.3873,322.277 82.5,320C 87.6953,317.212 93.0286,314.712 98.5,312.5 Z"/></g>
<g><path style="opacity:1" fill="#afafaf" d="M 369.5,312.5 C 369.665,315.518 369.498,318.518 369,321.5C 367.473,329.706 362.64,333.206 354.5,332C 351.333,330.311 348.333,328.478 345.5,326.5C 347.053,322.015 347.886,317.348 348,312.5C 352.574,317.15 358.074,318.65 364.5,317C 366.497,315.807 368.164,314.307 369.5,312.5 Z"/></g>
<g><path style="opacity:0.017" fill="#5eaece" d="M 155.5,295.5 C 154.265,301.277 153.265,307.11 152.5,313C 152.97,319.929 153.97,326.762 155.5,333.5C 153.992,331.015 152.659,328.348 151.5,325.5C 150.675,327.36 149.675,329.026 148.5,330.5C 149.307,324.536 149.64,318.536 149.5,312.5C 151.495,306.849 153.495,301.182 155.5,295.5 Z"/></g>
<g><path style="opacity:1" fill="#ababab" d="M 159.5,314.5 C 160.918,316.308 162.918,316.975 165.5,316.5C 165.5,318.5 165.5,320.5 165.5,322.5C 161.841,322.149 158.841,323.149 156.5,325.5C 155.523,322.713 155.19,319.713 155.5,316.5C 157.199,316.473 158.533,315.806 159.5,314.5 Z"/></g>
<g><path style="opacity:1" fill="#8b0b27" d="M 431.5,317.5 C 424.54,324.306 417.207,330.639 409.5,336.5C 407.566,337.11 405.899,338.11 404.5,339.5C 393.218,346.726 381.385,353.059 369,358.5C 369.234,352.246 370.401,346.246 372.5,340.5C 372.5,341.5 372.5,342.5 372.5,343.5C 380.654,341.17 388.654,338.337 396.5,335C 408.189,329.156 419.855,323.322 431.5,317.5 Z"/></g>
<g><path style="opacity:1" fill="#febc00" d="M 124.5,314.5 C 126.607,313.532 128.941,313.198 131.5,313.5C 131.5,317.167 131.5,320.833 131.5,324.5C 128.5,324.5 125.5,324.5 122.5,324.5C 122.5,326.833 122.5,329.167 122.5,331.5C 127.343,331.778 132.01,331.111 136.5,329.5C 136.198,332.059 136.532,334.393 137.5,336.5C 135.208,338.267 132.542,339.267 129.5,339.5C 129.5,337.167 129.5,334.833 129.5,332.5C 124.354,332.819 119.354,332.153 114.5,330.5C 113.752,327.503 113.085,324.503 112.5,321.5C 113,321.167 113.5,320.833 114,320.5C 117.654,322.205 121.487,323.205 125.5,323.5C 125.81,320.287 125.477,317.287 124.5,314.5 Z"/></g>
<g><path style="opacity:1" fill="#efefef" d="M 165.5,322.5 C 166.092,325.127 166.425,327.794 166.5,330.5C 164.396,330.201 162.396,330.534 160.5,331.5C 162.743,332.474 165.076,332.808 167.5,332.5C 167.575,335.206 167.908,337.873 168.5,340.5C 166.167,341.833 163.833,341.833 161.5,340.5C 158.839,335.851 157.173,330.851 156.5,325.5C 158.841,323.149 161.841,322.149 165.5,322.5 Z"/></g>
<g><path style="opacity:0.008" fill="#3899c0" d="M 434.5,319.5 C 433.089,321.914 431.089,323.581 428.5,324.5C 429.911,322.086 431.911,320.419 434.5,319.5 Z"/></g>
<g><path style="opacity:1" fill="#fed300" d="M 119.5,306.5 C 120.167,306.5 120.833,306.5 121.5,306.5C 126.267,306.526 130.934,307.193 135.5,308.5C 145.727,314.985 146.06,321.985 136.5,329.5C 132.01,331.111 127.343,331.778 122.5,331.5C 122.5,329.167 122.5,326.833 122.5,324.5C 125.5,324.5 128.5,324.5 131.5,324.5C 131.5,320.833 131.5,317.167 131.5,313.5C 128.941,313.198 126.607,313.532 124.5,314.5C 122.545,315.323 120.545,315.49 118.5,315C 119.272,312.061 119.606,309.228 119.5,306.5 Z"/></g>
<g><path style="opacity:0.031" fill="#63acc9" d="M 68.5,325.5 C 70.153,325.66 71.4863,326.326 72.5,327.5C 70.6203,327.771 69.287,327.104 68.5,325.5 Z"/></g>
<g><path style="opacity:1" fill="#3587a2" d="M 288.5,314.5 C 290.939,334.774 302.272,343.608 322.5,341C 325.684,340.246 328.351,338.746 330.5,336.5C 335.94,331.947 339.606,326.28 341.5,319.5C 342.167,319.833 342.833,320.167 343.5,320.5C 342.85,322.435 342.517,324.435 342.5,326.5C 340.562,332.284 336.896,336.784 331.5,340C 312.005,348.836 297.505,343.669 288,324.5C 286.921,321.937 286.421,319.271 286.5,316.5C 287.167,315.833 287.833,315.167 288.5,314.5 Z"/></g>
<g><path style="opacity:0.051" fill="#599cb6" d="M 76.5,329.5 C 78.153,329.66 79.4863,330.326 80.5,331.5C 78.6203,331.771 77.287,331.104 76.5,329.5 Z"/></g>
<g><path style="opacity:0.004" fill="#3aa1c8" d="M 421.5,330.5 C 421.027,331.906 420.027,332.573 418.5,332.5C 418.973,331.094 419.973,330.427 421.5,330.5 Z"/></g>
<g><path style="opacity:0.094" fill="#61acc9" d="M 82.5,332.5 C 84.3797,332.229 85.713,332.896 86.5,334.5C 84.847,334.34 83.5137,333.674 82.5,332.5 Z"/></g>
<g><path style="opacity:0.027" fill="#3aa1c8" d="M 417.5,333.5 C 417.027,334.906 416.027,335.573 414.5,335.5C 414.973,334.094 415.973,333.427 417.5,333.5 Z"/></g>
<g><path style="opacity:1" fill="#f2f2f2" d="M 178.5,324.5 C 180.063,331.998 181.396,339.664 182.5,347.5C 181.726,348.147 180.726,348.48 179.5,348.5C 177.307,348.281 175.307,347.615 173.5,346.5C 170.815,340.444 169.149,334.111 168.5,327.5C 168.791,326.351 169.624,325.684 171,325.5C 173.462,324.841 175.962,324.507 178.5,324.5 Z"/></g>
<g><path style="opacity:1" fill="#131313" d="M 172.5,330.5 C 178.555,329.942 179.888,332.109 176.5,337C 171.791,337.082 170.458,334.915 172.5,330.5 Z"/></g>
<g><path style="opacity:1" fill="#a5a6a6" d="M 173.5,332.5 C 176.548,332.494 177.048,333.494 175,335.5C 173.961,334.756 173.461,333.756 173.5,332.5 Z"/></g>
<g><path style="opacity:0.996" fill="#264757" d="M 414.5,335.5 C 411.525,338.323 408.192,340.656 404.5,342.5C 405.833,341.5 405.833,340.5 404.5,339.5C 405.899,338.11 407.566,337.11 409.5,336.5C 411.216,336.371 412.883,336.038 414.5,335.5 Z"/></g>
<g><path style="opacity:1" fill="#dde4e6" d="M 290.5,311.5 C 290.344,315.582 290.844,319.582 292,323.5C 300.648,340.105 313.482,344.438 330.5,336.5C 328.351,338.746 325.684,340.246 322.5,341C 302.272,343.608 290.939,334.774 288.5,314.5C 288.427,312.973 289.094,311.973 290.5,311.5 Z"/></g>
<g><path style="opacity:1" fill="#a2a2a2" d="M 161.5,340.5 C 163.833,341.833 166.167,341.833 168.5,340.5C 169.628,343.185 170.962,345.852 172.5,348.5C 172.167,348.833 171.833,349.167 171.5,349.5C 167.524,347.19 164.191,344.19 161.5,340.5 Z"/></g>
<g><path style="opacity:0.459" fill="#477f97" d="M 102.5,340.5 C 105.152,340.41 107.485,341.076 109.5,342.5C 106.848,342.59 104.515,341.924 102.5,340.5 Z"/></g>
<g><path style="opacity:0.018" fill="#63b6d7" d="M 109.5,342.5 C 116.5,343.833 123.5,343.833 130.5,342.5C 123.5,345.167 116.5,345.167 109.5,342.5 Z"/></g>
<g><path style="opacity:0.004" fill="#58a9c9" d="M 155.5,333.5 C 157.726,338.399 160.393,343.066 163.5,347.5C 158.774,344.053 156.108,339.386 155.5,333.5 Z"/></g>
<g><path style="opacity:1" fill="#b0b0b0" d="M 184.5,343.5 C 209.604,353.054 235.604,358.388 262.5,359.5C 260.835,366.163 259.168,372.829 257.5,379.5C 235.397,378.594 213.73,375.094 192.5,369C 189.134,360.734 186.467,352.234 184.5,343.5 Z"/></g>
<g><path style="opacity:1" fill="#b1b1b1" d="M 368.5,345.5 C 368.049,350.469 367.049,355.302 365.5,360C 331.62,374.443 296.287,380.776 259.5,379C 262.071,371.542 264.071,364.042 265.5,356.5C 265.5,357.833 265.5,359.167 265.5,360.5C 300.677,360.808 335.01,355.808 368.5,345.5 Z"/></g>
<g><path style="opacity:0.008" fill="#3ca4cd" d="M 399.5,345.5 C 399.027,346.906 398.027,347.573 396.5,347.5C 396.973,346.094 397.973,345.427 399.5,345.5 Z"/></g>
<g><path style="opacity:1" fill="#a9a9a9" d="M 173.5,346.5 C 175.307,347.615 177.307,348.281 179.5,348.5C 180.726,348.48 181.726,348.147 182.5,347.5C 189.492,361.857 187.659,363.524 177,352.5C 175.606,350.612 174.44,348.612 173.5,346.5 Z"/></g>
<g><path style="opacity:0.169" fill="#53a1c0" d="M 163.5,347.5 C 165.027,347.427 166.027,348.094 166.5,349.5C 164.973,349.573 163.973,348.906 163.5,347.5 Z"/></g>
<g><path style="opacity:0.075" fill="#3898be" d="M 394.5,348.5 C 393.713,350.104 392.38,350.771 390.5,350.5C 391.514,349.326 392.847,348.66 394.5,348.5 Z"/></g>
<g><path style="opacity:0.078" fill="#4f9dbb" d="M 166.5,349.5 C 168.153,349.66 169.486,350.326 170.5,351.5C 168.62,351.771 167.287,351.104 166.5,349.5 Z"/></g>
<g><path style="opacity:0.012" fill="#53a6c7" d="M 170.5,351.5 C 173.958,351.414 175.958,353.081 176.5,356.5C 174.7,354.529 172.7,352.862 170.5,351.5 Z"/></g>
<g><path style="opacity:0.608" fill="#4489a4" d="M 176.5,356.5 C 178.749,357.08 180.415,358.413 181.5,360.5C 179.251,359.92 177.585,358.587 176.5,356.5 Z"/></g>
<g><path style="opacity:0.043" fill="#3ca0c7" d="M 371.5,360.5 C 370.22,361.931 368.553,362.598 366.5,362.5C 367.78,361.069 369.447,360.402 371.5,360.5 Z"/></g>
<g><path style="opacity:0.014" fill="#3fa6cd" d="M 366.5,362.5 C 365.365,364.213 363.698,364.88 361.5,364.5C 362.78,363.069 364.447,362.402 366.5,362.5 Z"/></g>
<g><path style="opacity:0.008" fill="#3da2c8" d="M 361.5,364.5 C 360.365,366.213 358.698,366.88 356.5,366.5C 357.78,365.069 359.447,364.402 361.5,364.5 Z"/></g>
<g><path style="opacity:0.018" fill="#52aacc" d="M 181.5,360.5 C 183.84,361.086 186.007,362.086 188,363.5C 188.696,366.438 189.862,369.104 191.5,371.5C 190.504,371.586 189.671,371.252 189,370.5C 188.069,368.541 187.236,366.541 186.5,364.5C 184.581,363.388 182.914,362.054 181.5,360.5 Z"/></g>
<g><path style="opacity:0.018" fill="#58b6dc" d="M 191.5,371.5 C 196.277,371.921 196.61,373.254 192.5,375.5C 192.567,374.041 192.234,372.708 191.5,371.5 Z"/></g>
<g><path style="opacity:1" fill="#8b0b27" d="M 242.5,391.5 C 238.743,388.746 234.409,387.246 229.5,387C 222.833,386.333 216.167,386.333 209.5,387C 199.948,391.276 190.281,395.276 180.5,399C 171.521,401.532 162.521,403.032 153.5,403.5C 152.527,403.013 151.527,402.513 150.5,402C 168.987,396.828 184.987,387.495 198.5,374C 216.367,377.029 234.367,379.696 252.5,382C 249.955,386.046 246.622,389.213 242.5,391.5 Z"/></g>
<g><path style="opacity:0.009" fill="#43a1c6" d="M 356.5,366.5 C 341.623,373.287 325.957,377.787 309.5,380C 302.463,380.741 295.463,381.741 288.5,383C 277.401,383.343 266.401,383.51 255.5,383.5C 289.757,382.957 323.424,377.29 356.5,366.5 Z"/></g>
<g><path style="opacity:1" fill="#ca103a" d="M 242.5,391.5 C 238.833,394.167 235.167,396.833 231.5,399.5C 231.167,399.5 230.833,399.5 230.5,399.5C 225.971,401.595 221.304,403.428 216.5,405C 195.32,410.061 174.32,409.561 153.5,403.5C 162.521,403.032 171.521,401.532 180.5,399C 190.281,395.276 199.948,391.276 209.5,387C 216.167,386.333 222.833,386.333 229.5,387C 234.409,387.246 238.743,388.746 242.5,391.5 Z"/></g>
<g><path style="opacity:0.839" fill="#366e84" d="M 162.5,395.5 C 160.316,397.585 157.649,398.585 154.5,398.5C 156.89,396.98 159.557,395.98 162.5,395.5 Z"/></g>
<g><path style="opacity:1" fill="#316379" d="M 239.5,397.5 C 236.992,399.924 233.992,401.59 230.5,402.5C 231.833,401.5 231.833,400.5 230.5,399.5C 230.833,399.5 231.167,399.5 231.5,399.5C 234.327,399.416 236.994,398.75 239.5,397.5 Z"/></g>
<g><path style="opacity:0.022" fill="#56b2d6" d="M 150.5,405.5 C 153.152,405.41 155.485,406.076 157.5,407.5C 154.848,407.59 152.515,406.924 150.5,405.5 Z"/></g>
<g><path style="opacity:0.022" fill="#47a1c4" d="M 223.5,405.5 C 217.939,408.393 211.939,410.059 205.5,410.5C 211.308,408.545 217.308,406.878 223.5,405.5 Z"/></g>
<g><path style="opacity:0.017" fill="#53b0d4" d="M 161.5,408.5 C 165.078,408.549 168.411,409.215 171.5,410.5C 167.878,410.678 164.544,410.011 161.5,408.5 Z"/></g>
<g><path style="opacity:0.028" fill="#4facd1" d="M 171.5,410.5 C 182.835,411.789 194.168,411.789 205.5,410.5C 200.431,412.057 195.098,412.724 189.5,412.5C 183.26,412.667 177.26,412 171.5,410.5 Z"/></g>
<g><path style="opacity:0.081" fill="#47afd8" d="M 198.5,426.5 C 232.936,425.522 267.436,425.188 302,425.5C 311.641,426.13 321.141,426.797 330.5,427.5C 286.504,426.731 242.504,426.398 198.5,426.5 Z"/></g>
<g><path style="opacity:0.974" fill="#36819e" d="M 198.5,426.5 C 242.504,426.398 286.504,426.731 330.5,427.5C 331.167,427.5 331.833,427.5 332.5,427.5C 335.977,428.323 339.644,428.823 343.5,429C 342.833,429.333 342.167,429.667 341.5,430C 285.847,431.591 230.18,431.924 174.5,431C 168.147,430.513 161.814,429.847 155.5,429C 158.036,428.814 160.369,428.314 162.5,427.5C 174.48,426.662 186.48,426.328 198.5,426.5 Z"/></g>
<g><path style="opacity:0.282" fill="#48aed7" d="M 162.5,427.5 C 160.369,428.314 158.036,428.814 155.5,429C 161.814,429.847 168.147,430.513 174.5,431C 230.18,431.924 285.847,431.591 341.5,430C 342.167,429.667 342.833,429.333 343.5,429C 339.644,428.823 335.977,428.323 332.5,427.5C 336.5,427.5 340.5,427.5 344.5,427.5C 344.67,428.822 344.337,429.989 343.5,431C 284.016,433.649 224.516,433.816 165,431.5C 160.62,433.229 156.786,432.395 153.5,429C 156.278,427.608 159.278,427.108 162.5,427.5 Z"/></g>
</svg>
