<?xml version="1.0" encoding="UTF-8"?>
<!DOCTYPE svg PUBLIC "-//W3C//DTD SVG 1.1//EN" "http://www.w3.org/Graphics/SVG/1.1/DTD/svg11.dtd">
<svg xmlns="http://www.w3.org/2000/svg" version="1.1" width="2000px" height="1500px" style="shape-rendering:geometricPrecision; text-rendering:geometricPrecision; image-rendering:optimizeQuality; fill-rule:evenodd; clip-rule:evenodd" xmlns:xlink="http://www.w3.org/1999/xlink">
<g><path style="opacity:1" fill="#fefefe" d="M -0.5,-0.5 C 666.167,-0.5 1332.83,-0.5 1999.5,-0.5C 1999.5,499.5 1999.5,999.5 1999.5,1499.5C 1332.83,1499.5 666.167,1499.5 -0.5,1499.5C -0.5,999.5 -0.5,499.5 -0.5,-0.5 Z"/></g>
<g><path style="opacity:1" fill="#030303" d="M 1150.5,281.5 C 1308.44,275.71 1438.94,332.044 1542,450.5C 1623.4,551.385 1658.4,666.718 1647,796.5C 1626.08,957.942 1545.58,1079.11 1405.5,1160C 1294.1,1218.67 1177.43,1232.01 1055.5,1200C 978.788,1177.5 911.788,1138.84 854.5,1084C 866.5,1083.33 878.5,1083.33 890.5,1084C 1003.82,1178.33 1133.15,1211 1278.5,1182C 1419.56,1146.92 1521.73,1064.08 1585,933.5C 1627.63,836.44 1635.97,736.44 1610,633.5C 1574.18,511.038 1500.68,418.871 1389.5,357C 1281.8,302.296 1169.8,291.296 1053.5,324C 992.696,342.889 938.362,372.889 890.5,414C 878.5,414.667 866.5,414.667 854.5,414C 937.294,334.989 1035.96,290.822 1150.5,281.5 Z"/></g>
<g><path style="opacity:1" fill="#000000" d="M 1231.5,478.5 C 1291.25,476.132 1348.58,486.632 1403.5,510C 1418.72,517.089 1432.72,525.922 1445.5,536.5C 1431.8,568.807 1417.63,600.807 1403,632.5C 1351.37,596.951 1294.2,581.118 1231.5,585C 1213.67,586.923 1197.67,593.256 1183.5,604C 1168.1,618.124 1164.26,634.958 1172,654.5C 1179.14,663.966 1188.31,670.799 1199.5,675C 1207.68,678.394 1216.01,681.394 1224.5,684C 1250.06,690.474 1275.73,696.474 1301.5,702C 1327.13,708.877 1352.13,717.544 1376.5,728C 1445.05,759.586 1472.55,812.753 1459,887.5C 1449.38,931.111 1425.21,963.945 1386.5,986C 1351.11,1004.57 1313.44,1015.24 1273.5,1018C 1204.52,1023.71 1137.85,1014.04 1073.5,989C 1057.1,981.969 1041.44,973.636 1026.5,964C 1025.43,963.261 1024.76,962.261 1024.5,961C 1038.27,928.627 1052.44,896.46 1067,864.5C 1132.13,905.821 1202.97,920.988 1279.5,910C 1294.51,907.077 1307.68,900.577 1319,890.5C 1333.68,867.543 1329.52,848.71 1306.5,834C 1296.23,828.689 1285.57,824.356 1274.5,821C 1245.98,813.371 1217.32,806.371 1188.5,800C 1155.48,791.775 1124.15,779.441 1094.5,763C 1065.52,746.348 1046.69,721.848 1038,689.5C 1023.07,617.257 1045.57,560.09 1105.5,518C 1144.18,494.05 1186.18,480.883 1231.5,478.5 Z"/></g>
<g><path style="opacity:1" fill="#000000" d="M 536.5,485.5 C 628.167,485.333 719.834,485.5 811.5,486C 852.158,487.551 888.825,500.218 921.5,524C 954.335,552.167 972.502,588 976,631.5C 978.977,665.328 974.31,697.995 962,729.5C 941.189,772.504 907.689,800.337 861.5,813C 845.732,816.972 829.732,819.638 813.5,821C 767.168,821.5 720.835,821.667 674.5,821.5C 674.5,885.167 674.5,948.833 674.5,1012.5C 628.5,1012.5 582.5,1012.5 536.5,1012.5C 536.5,836.833 536.5,661.167 536.5,485.5 Z"/></g>
<g><path style="opacity:1" fill="#fefefe" d="M 674.5,589.5 C 713.501,589.333 752.501,589.5 791.5,590C 829.444,594.604 848.111,615.937 847.5,654C 848.114,692.06 829.447,713.393 791.5,718C 752.501,718.5 713.501,718.667 674.5,718.5C 674.5,675.5 674.5,632.5 674.5,589.5 Z"/></g>
</svg>
